<?xml version="1.0" encoding="UTF-8"?>
<svg id="Layer_1" data-name="Layer 1" xmlns="http://www.w3.org/2000/svg" viewBox="0 0 502.3 199.44">
  <defs>
    <style>
      .cls-1 {
        fill: #d9c1bf;
      }

      .cls-2 {
        stroke: #bfecc0;
        stroke-width: 2.5px;
      }

      .cls-2, .cls-3, .cls-4, .cls-5, .cls-6, .cls-7, .cls-8, .cls-9, .cls-10, .cls-11, .cls-12, .cls-13, .cls-14, .cls-15, .cls-16, .cls-17, .cls-18 {
        stroke-miterlimit: 10;
      }

      .cls-2, .cls-9, .cls-10, .cls-13 {
        fill: none;
      }

      .cls-19 {
        font-family: Times-Roman, Times;
        font-size: 12px;
      }

      .cls-20 {
        font-family: TimesNewRomanPS-BoldMT, 'Times New Roman';
        font-size: 10px;
        font-weight: 700;
      }

      .cls-3 {
        fill: #cea1af;
      }

      .cls-3, .cls-4, .cls-6, .cls-8, .cls-9, .cls-10, .cls-12, .cls-13, .cls-18 {
        stroke: #000;
      }

      .cls-4 {
        fill: #86ae84;
      }

      .cls-5 {
        fill: #009245;
        stroke: #009245;
      }

      .cls-5, .cls-7, .cls-14, .cls-15, .cls-16, .cls-17 {
        stroke-width: 2px;
      }

      .cls-21 {
        font-size: 7.36px;
      }

      .cls-22, .cls-23, .cls-24, .cls-25 {
        font-family: TimesNewRomanPSMT, 'Times New Roman';
      }

      .cls-22, .cls-26 {
        font-size: 8px;
      }

      .cls-27, .cls-28 {
        font-size: 8.28px;
      }

      .cls-23, .cls-29, .cls-24 {
        font-size: 9px;
      }

      .cls-6 {
        fill: #a2a6cd;
      }

      .cls-7, .cls-11 {
        stroke: #231f20;
      }

      .cls-29, .cls-26 {
        font-family: TimesNewRomanPS-ItalicMT, 'Times New Roman';
        font-style: italic;
      }

      .cls-30, .cls-12 {
        fill: #feedae;
      }

      .cls-8 {
        fill: #fdd235;
      }

      .cls-31 {
        fill: #bfecc0;
      }

      .cls-28 {
        letter-spacing: -.04em;
      }

      .cls-24, .cls-32 {
        letter-spacing: -.04em;
      }

      .cls-9, .cls-13 {
        stroke-width: .5px;
      }

      .cls-11 {
        fill: #fff;
      }

      .cls-13 {
        stroke-dasharray: 2.99 2.99;
      }

      .cls-14 {
        fill: #c1272d;
        stroke: #c1272d;
      }

      .cls-33 {
        letter-spacing: -.08em;
      }

      .cls-34 {
        letter-spacing: -.02em;
      }

      .cls-35 {
        letter-spacing: -.04em;
      }

      .cls-36 {
        letter-spacing: -.04em;
      }

      .cls-15 {
        fill: #0072b2;
        stroke: #0072b2;
      }

      .cls-16 {
        fill: #f15a24;
        stroke: #f15a24;
      }

      .cls-17 {
        fill: #9ae09b;
        stroke: #8b5e3c;
      }

      .cls-18 {
        fill: #84a9c0;
      }
    </style>
  </defs>
  <rect class="cls-30" x="97.73" y="109.53" width="55.73" height="48.22"/>
  <polygon class="cls-31" points="421.18 199.16 158.47 199.16 158.47 70.04 208.96 70.04 208.96 13.08 421.18 13.08 421.18 199.16"/>
  <rect class="cls-30" x="96.73" y="66.86" width="55.73" height="39.88"/>
  <rect class="cls-11" x="429.8" y="3.73" width="72" height="117.98"/>
  <g>
    <line class="cls-10" x1="305.4" y1="103.63" x2="305.4" y2="115.75"/>
    <polygon points="302.41 114.88 305.4 120.06 308.39 114.88 302.41 114.88"/>
  </g>
  <rect class="cls-30" x="97.73" y="12.58" width="103.87" height="51.12"/>
  <rect class="cls-12" x="129.6" y="39.73" width="21.6" height="14.4" rx="2.38" ry="2.38"/>
  <text class="cls-23" transform="translate(130.4 50.39)"><tspan x="0" y="0">KWS</tspan></text>
  <g>
    <line class="cls-10" x1="353.17" y1="34.56" x2="353.17" y2="78.71"/>
    <line class="cls-10" x1="329.07" y1="78.21" x2="353.64" y2="78.21"/>
    <line class="cls-10" x1="329.56" y1="77.74" x2="329.56" y2="111.25"/>
    <line class="cls-10" x1="317.63" y1="111.07" x2="330.06" y2="111.07"/>
    <g>
      <line class="cls-10" x1="317.63" y1="116.12" x2="317.63" y2="110.6"/>
      <polygon points="320.62 115.25 317.63 120.43 314.64 115.25 320.62 115.25"/>
    </g>
  </g>
  <rect class="cls-8" x="99.8" y="71.73" width="50.4" height="21.6" rx="3.59" ry="3.59"/>
  <text class="cls-23" transform="translate(102.29 80.26)"><tspan x="0" y="0">Deployment </tspan><tspan class="cls-36" x="12.91" y="10.8">T</tspan><tspan x="18.09" y="10.8">ime</tspan></text>
  <path class="cls-3" d="M274.8,89.78h134.22c3.97,0,7.2,3.23,7.2,7.2v6.65h-134.22c-3.97,0-7.2-3.23-7.2-7.2v-6.65h0Z"/>
  <text class="cls-23" transform="translate(277.82 99.63)"><tspan x="0" y="0">List of Sensing and Compute Designs</tspan></text>
  <path class="cls-3" d="M266.8,58.33h60.1c3.97,0,7.2,3.23,7.2,7.2v5.32h-60.1c-3.97,0-7.2-3.23-7.2-7.2v-5.32h0Z"/>
  <g>
    <path d="M279.45,61.82v.14c-.14,0-.25.02-.34.07s-.17.14-.25.28c-.05.09-.13.31-.25.65l-1.48,4.27h-.16l-1.21-3.39-1.2,3.39h-.14l-1.57-4.4c-.12-.33-.19-.52-.22-.58-.05-.1-.12-.17-.21-.22s-.21-.07-.37-.07v-.14h1.96v.14h-.09c-.14,0-.24.03-.32.09-.07.06-.11.14-.11.23s.06.3.17.63l1.04,2.97.88-2.53-.16-.45-.12-.36c-.05-.13-.12-.24-.18-.34-.03-.05-.08-.09-.12-.12-.07-.05-.13-.08-.2-.1-.05-.02-.13-.02-.23-.02v-.14h2.06v.14h-.14c-.15,0-.25.03-.32.09-.07.06-.1.15-.1.25,0,.13.06.36.18.7l1.02,2.88,1.01-2.92c.11-.32.17-.55.17-.67,0-.06-.02-.12-.06-.17-.04-.05-.09-.09-.14-.11-.1-.04-.23-.05-.39-.05v-.14h1.58Z"/>
    <path d="M280.68,63.43v2.88c0,.22.02.37.05.45.03.07.08.13.14.17.06.04.18.05.35.05v.14h-1.74v-.14c.17,0,.29-.02.35-.05.06-.03.11-.09.14-.17s.05-.23.05-.45v-1.38c0-.39-.01-.64-.04-.75-.02-.08-.05-.14-.09-.17s-.09-.05-.16-.05c-.07,0-.16.02-.27.06l-.05-.14,1.08-.44h.17ZM280.36,61.56c.11,0,.2.04.28.12.08.08.12.17.12.28s-.04.2-.12.28c-.08.08-.17.12-.28.12s-.2-.04-.28-.12-.12-.17-.12-.28.04-.2.12-.28c.08-.08.17-.12.28-.12Z"/>
    <path d="M282.72,63.43v.8c.3-.54.61-.8.92-.8.14,0,.26.04.36.13s.14.19.14.3c0,.1-.03.19-.1.26-.07.07-.15.11-.24.11s-.19-.04-.31-.13-.2-.13-.25-.13c-.05,0-.1.03-.15.08-.12.11-.24.28-.36.53v1.71c0,.2.02.35.07.45.03.07.09.13.18.18s.21.07.37.07v.14h-1.83v-.14c.18,0,.32-.03.41-.09.06-.04.11-.11.14-.2.01-.04.02-.17.02-.38v-1.39c0-.42,0-.66-.03-.74-.02-.08-.05-.14-.09-.17-.05-.04-.1-.05-.17-.05-.08,0-.17.02-.27.06l-.04-.14,1.08-.44h.16Z"/>
    <path d="M284.93,64.88c0,.53.13.95.39,1.25.26.3.57.45.92.45.23,0,.44-.06.61-.19.17-.13.32-.35.44-.66l.12.08c-.05.36-.21.68-.48.97-.26.29-.59.44-.99.44-.43,0-.8-.17-1.1-.5-.31-.33-.46-.78-.46-1.35,0-.61.16-1.09.47-1.43.31-.34.71-.51,1.18-.51.4,0,.73.13.99.4s.39.62.39,1.06h-2.47ZM284.93,64.66h1.66c-.01-.23-.04-.39-.08-.48-.07-.15-.16-.26-.29-.34s-.26-.12-.4-.12c-.22,0-.41.08-.58.25-.17.17-.27.4-.3.7Z"/>
    <path d="M289.11,61.56v4.75c0,.22.02.37.05.45.03.07.08.13.15.17.07.04.19.06.38.06v.14h-1.75v-.14c.16,0,.28-.02.34-.05.06-.03.11-.09.14-.17.03-.08.05-.23.05-.45v-3.25c0-.4,0-.65-.03-.74-.02-.09-.05-.16-.09-.19-.04-.03-.09-.05-.15-.05-.07,0-.15.02-.26.06l-.07-.14,1.07-.44h.18Z"/>
    <path d="M290.71,64.88c0,.53.13.95.39,1.25.26.3.57.45.92.45.23,0,.44-.06.61-.19.17-.13.32-.35.44-.66l.12.08c-.05.36-.21.68-.48.97-.26.29-.59.44-.99.44-.43,0-.8-.17-1.1-.5-.31-.33-.46-.78-.46-1.35,0-.61.16-1.09.47-1.43.31-.34.71-.51,1.18-.51.4,0,.73.13.99.4s.39.62.39,1.06h-2.47ZM290.71,64.66h1.66c-.01-.23-.04-.39-.08-.48-.07-.15-.16-.26-.29-.34s-.26-.12-.4-.12c-.22,0-.41.08-.58.25-.17.17-.27.4-.3.7Z"/>
    <path d="M295.97,63.43v1.22h-.13c-.1-.38-.23-.64-.38-.78-.16-.14-.35-.21-.59-.21-.18,0-.33.05-.44.14-.11.1-.17.2-.17.32,0,.15.04.27.12.38.08.11.24.22.49.34l.57.28c.53.26.79.6.79,1.02,0,.33-.12.59-.37.79s-.52.3-.83.3c-.22,0-.47-.04-.75-.12-.09-.03-.16-.04-.21-.04-.06,0-.11.03-.14.1h-.13v-1.28h.13c.07.36.21.64.42.82.21.19.44.28.69.28.18,0,.33-.05.44-.16s.17-.23.17-.38c0-.18-.06-.33-.19-.45-.13-.12-.38-.28-.76-.46-.38-.19-.62-.36-.74-.51-.12-.15-.18-.34-.18-.56,0-.29.1-.54.3-.74.2-.2.46-.3.78-.3.14,0,.31.03.51.09.13.04.22.06.27.06.04,0,.07,0,.1-.03s.05-.06.08-.12h.13Z"/>
    <path d="M299.08,63.43v1.22h-.13c-.1-.38-.23-.64-.38-.78-.16-.14-.35-.21-.59-.21-.18,0-.33.05-.44.14-.11.1-.17.2-.17.32,0,.15.04.27.12.38.08.11.24.22.49.34l.57.28c.53.26.79.6.79,1.02,0,.33-.12.59-.37.79s-.52.3-.83.3c-.22,0-.47-.04-.75-.12-.09-.03-.16-.04-.21-.04-.06,0-.11.03-.14.1h-.13v-1.28h.13c.07.36.21.64.42.82.21.19.44.28.69.28.18,0,.33-.05.44-.16s.17-.23.17-.38c0-.18-.06-.33-.19-.45-.13-.12-.38-.28-.76-.46-.38-.19-.62-.36-.74-.51-.12-.15-.18-.34-.18-.56,0-.29.1-.54.3-.74.2-.2.46-.3.78-.3.14,0,.31.03.51.09.13.04.22.06.27.06.04,0,.07,0,.1-.03s.05-.06.08-.12h.13Z"/>
    <path d="M304.91,67.11l-2.05-4.46v3.54c0,.33.04.53.11.61.1.11.25.16.46.16h.19v.14h-1.84v-.14h.19c.22,0,.38-.07.48-.2.06-.08.09-.27.09-.57v-3.46c0-.23-.03-.4-.08-.51-.04-.08-.1-.14-.2-.19s-.25-.08-.47-.08v-.14h1.5l1.92,4.14,1.89-4.14h1.5v.14h-.18c-.23,0-.39.07-.48.2-.06.08-.09.27-.09.57v3.46c0,.33.04.53.11.61.1.11.25.16.46.16h.18v.14h-2.25v-.14h.19c.23,0,.38-.07.48-.2.06-.08.09-.27.09-.57v-3.54l-2.04,4.46h-.13Z"/>
    <path d="M310.75,63.43c.54,0,.98.21,1.3.62.28.35.42.76.42,1.21,0,.32-.08.64-.23.97-.15.33-.37.58-.63.74s-.57.25-.9.25c-.54,0-.97-.21-1.29-.64-.27-.36-.4-.77-.4-1.22,0-.33.08-.65.24-.98.16-.32.38-.56.64-.72s.55-.23.84-.23ZM310.63,63.69c-.14,0-.28.04-.42.12-.14.08-.25.23-.34.43s-.13.47-.13.79c0,.52.1.97.31,1.35s.48.57.82.57c.25,0,.46-.1.62-.31s.25-.57.25-1.07c0-.64-.14-1.14-.41-1.5-.19-.25-.42-.38-.71-.38Z"/>
    <path d="M315.52,66.71c-.17.18-.35.31-.51.39-.17.08-.35.12-.54.12-.39,0-.73-.16-1.02-.49-.29-.33-.44-.75-.44-1.26s.16-.98.48-1.41c.32-.43.74-.64,1.25-.64.31,0,.58.1.78.3v-.66c0-.41,0-.66-.03-.75s-.05-.16-.09-.19c-.04-.03-.09-.05-.16-.05-.07,0-.16.02-.27.06l-.05-.14,1.07-.44h.18v4.14c0,.42,0,.68.03.77s.05.16.09.19.09.05.15.05c.07,0,.16-.02.28-.07l.04.14-1.06.44h-.18v-.51ZM315.52,66.44v-1.84c-.02-.18-.06-.34-.14-.48s-.18-.26-.31-.33-.25-.11-.38-.11c-.23,0-.43.1-.61.31-.24.27-.36.67-.36,1.19s.11.93.34,1.21c.23.28.48.42.77.42.24,0,.47-.12.69-.36Z"/>
    <path d="M320.13,63.54v2.17c0,.41,0,.67.03.76s.05.16.09.19.09.05.15.05c.08,0,.17-.02.27-.07l.05.14-1.07.44h-.18v-.76c-.31.33-.54.54-.7.63-.16.09-.33.13-.51.13-.2,0-.38-.06-.52-.17-.15-.12-.25-.27-.31-.45-.06-.18-.09-.44-.09-.77v-1.6c0-.17-.02-.29-.05-.35-.04-.06-.09-.12-.16-.15-.07-.04-.2-.05-.39-.05v-.14h1.25v2.39c0,.33.06.55.17.66.12.1.26.16.42.16.11,0,.24-.04.38-.11.14-.07.31-.2.51-.4v-2.03c0-.2-.04-.34-.11-.41s-.23-.11-.46-.12v-.14h1.22Z"/>
    <path d="M322.23,61.56v4.75c0,.22.02.37.05.45.03.07.08.13.15.17.07.04.19.06.38.06v.14h-1.75v-.14c.16,0,.28-.02.34-.05.06-.03.11-.09.14-.17.03-.08.05-.23.05-.45v-3.25c0-.4,0-.65-.03-.74-.02-.09-.05-.16-.09-.19-.04-.03-.09-.05-.15-.05-.07,0-.15.02-.26.06l-.07-.14,1.07-.44h.18Z"/>
    <path d="M323.82,64.88c0,.53.13.95.39,1.25.26.3.57.45.92.45.23,0,.44-.06.61-.19.17-.13.32-.35.44-.66l.12.08c-.05.36-.21.68-.48.97-.26.29-.59.44-.99.44-.43,0-.8-.17-1.1-.5-.31-.33-.46-.78-.46-1.35,0-.61.16-1.09.47-1.43.31-.34.71-.51,1.18-.51.4,0,.73.13.99.4s.39.62.39,1.06h-2.47ZM323.82,64.66h1.66c-.01-.23-.04-.39-.08-.48-.07-.15-.16-.26-.29-.34s-.26-.12-.4-.12c-.22,0-.41.08-.58.25-.17.17-.27.4-.3.7Z"/>
    <path d="M329.08,63.43v1.22h-.13c-.1-.38-.23-.64-.38-.78-.16-.14-.35-.21-.59-.21-.18,0-.33.05-.44.14-.11.1-.17.2-.17.32,0,.15.04.27.12.38.08.11.24.22.49.34l.57.28c.53.26.79.6.79,1.02,0,.33-.12.59-.37.79s-.52.3-.83.3c-.22,0-.47-.04-.75-.12-.09-.03-.16-.04-.21-.04-.06,0-.11.03-.14.1h-.13v-1.28h.13c.07.36.21.64.42.82.21.19.44.28.69.28.18,0,.33-.05.44-.16s.17-.23.17-.38c0-.18-.06-.33-.19-.45-.13-.12-.38-.28-.76-.46-.38-.19-.62-.36-.74-.51-.12-.15-.18-.34-.18-.56,0-.29.1-.54.3-.74.2-.2.46-.3.78-.3.14,0,.31.03.51.09.13.04.22.06.27.06.04,0,.07,0,.1-.03s.05-.06.08-.12h.13Z"/>
  </g>
  <polygon class="cls-6" points="259.09 118.53 181.65 118.53 187.5 107.73 264.41 107.73 259.09 118.53"/>
  <polygon class="cls-6" points="440.31 178.03 430.92 178.03 433.33 168.6 443.01 168.6 440.31 178.03"/>
  <text class="cls-25" transform="translate(193.28 115.34)"><tspan class="cls-27" x="0" y="0">Event </tspan><tspan class="cls-21" x="21.39" y="0">Arrival </tspan><tspan class="cls-28" x="44.49" y="0">T</tspan><tspan class="cls-27" x="49.26" y="0">race</tspan></text>
  <polygon class="cls-6" points="259.23 102.09 180.85 102.09 186.77 91.29 264.62 91.29 259.23 102.09"/>
  <text class="cls-22" transform="translate(205.47 99.41)"><tspan x="0" y="0">Solar</tspan><tspan class="cls-34" x="16.89" y="0"> </tspan><tspan class="cls-36" x="18.74" y="0">T</tspan><tspan x="23.35" y="0">race</tspan></text>
  <path class="cls-3" d="M212.4,58.33h36c3.97,0,7.2,3.23,7.2,7.2v5.4h-36c-3.97,0-7.2-3.23-7.2-7.2v-5.4h0Z"/>
  <text class="cls-22" transform="translate(221.75 66.65)"><tspan x="0" y="0">Sensors </tspan></text>
  <rect class="cls-12" x="165.6" y="32.53" width="28.8" height="21.6" rx="1.8" ry="1.8"/>
  <text class="cls-23" transform="translate(171 41.24)"><tspan x="0" y="0">Send </tspan><tspan x="-2.5" y="10.8">Result</tspan></text>
  <path class="cls-3" d="M359,58.33h36c3.97,0,7.2,3.23,7.2,7.2v5.32h-36c-3.97,0-7.2-3.23-7.2-7.2v-5.32h0Z"/>
  <path class="cls-3" d="M432.27,140.93h5.79c1.99,0,3.6,1.61,3.6,3.6v5.79h-5.79c-1.99,0-3.6-1.61-3.6-3.6v-5.79h0Z"/>
  <g>
    <path d="M365.13,64.02v1.54c0,.33.04.54.11.62.1.11.25.17.45.17h.2v.14h-2.27v-.14h.2c.22,0,.38-.07.48-.22.05-.08.08-.27.08-.57v-3.42c0-.33-.04-.54-.11-.62-.1-.11-.25-.17-.45-.17h-.2v-.14h1.94c.47,0,.85.05,1.12.15s.5.26.69.49.28.51.28.82c0,.43-.14.78-.43,1.05s-.69.41-1.21.41c-.13,0-.27,0-.41-.03s-.31-.05-.48-.08ZM365.13,63.8c.14.03.26.05.37.06.11.01.2.02.27.02.27,0,.5-.1.7-.31.2-.21.29-.48.29-.81,0-.23-.05-.44-.14-.64s-.23-.34-.4-.44-.37-.15-.59-.15c-.13,0-.3.02-.51.07v2.2Z"/>
    <path d="M369.24,62.82v.8c.3-.54.61-.8.92-.8.14,0,.26.04.36.13s.14.19.14.3c0,.1-.03.19-.1.26-.07.07-.15.11-.24.11s-.19-.04-.31-.13-.2-.13-.25-.13c-.05,0-.1.03-.15.08-.12.11-.24.28-.36.53v1.71c0,.2.02.35.07.45.03.07.09.13.18.18s.21.07.37.07v.14h-1.83v-.14c.18,0,.32-.03.41-.09.06-.04.11-.11.14-.2.01-.04.02-.17.02-.38v-1.39c0-.42,0-.66-.03-.74-.02-.08-.05-.14-.09-.17-.05-.04-.1-.05-.17-.05-.08,0-.17.02-.27.06l-.04-.14,1.08-.44h.16Z"/>
    <path d="M372.6,62.82c.54,0,.98.21,1.3.62.28.35.42.76.42,1.21,0,.32-.08.64-.23.97-.15.33-.37.58-.63.74s-.57.25-.9.25c-.54,0-.97-.21-1.29-.64-.27-.36-.4-.77-.4-1.22,0-.33.08-.65.24-.98.16-.32.38-.56.64-.72s.55-.23.84-.23ZM372.48,63.07c-.14,0-.28.04-.42.12-.14.08-.25.23-.34.43s-.13.47-.13.79c0,.52.1.97.31,1.35s.48.57.82.57c.25,0,.46-.1.62-.31s.25-.57.25-1.07c0-.64-.14-1.14-.41-1.5-.19-.25-.42-.38-.71-.38Z"/>
    <path d="M377.89,65.14c-.1.47-.29.83-.57,1.09s-.59.38-.93.38c-.41,0-.76-.17-1.06-.51-.3-.34-.45-.8-.45-1.38s.17-1.02.5-1.37c.33-.35.74-.53,1.21-.53.35,0,.64.09.87.28s.34.38.34.58c0,.1-.03.18-.1.24-.06.06-.15.09-.27.09-.15,0-.27-.05-.35-.15-.04-.05-.07-.16-.09-.31-.01-.15-.07-.27-.16-.35-.09-.08-.22-.12-.38-.12-.26,0-.47.1-.63.29-.21.26-.32.59-.32,1.01s.1.8.31,1.13c.21.33.49.49.85.49.25,0,.48-.09.69-.26.14-.12.28-.34.42-.65l.11.05Z"/>
    <path d="M379.01,64.27c0,.53.13.95.39,1.25.26.3.57.45.92.45.23,0,.44-.06.61-.19.17-.13.32-.35.44-.66l.12.08c-.05.36-.21.68-.48.97-.26.29-.59.44-.99.44-.43,0-.8-.17-1.1-.5-.31-.33-.46-.78-.46-1.35,0-.61.16-1.09.47-1.43.31-.34.71-.51,1.18-.51.4,0,.73.13.99.4s.39.62.39,1.06h-2.47ZM379.01,64.05h1.66c-.01-.23-.04-.39-.08-.48-.07-.15-.16-.26-.29-.34s-.26-.12-.4-.12c-.22,0-.41.08-.58.25-.17.17-.27.4-.3.7Z"/>
    <path d="M384.27,62.82v1.22h-.13c-.1-.38-.23-.64-.38-.78-.16-.14-.35-.21-.59-.21-.18,0-.33.05-.44.14-.11.1-.17.2-.17.32,0,.15.04.27.12.38.08.11.24.22.49.34l.57.28c.53.26.79.6.79,1.02,0,.33-.12.59-.37.79s-.52.3-.83.3c-.22,0-.47-.04-.75-.12-.09-.03-.16-.04-.21-.04-.06,0-.11.03-.14.1h-.13v-1.28h.13c.07.36.21.64.42.82.21.19.44.28.69.28.18,0,.33-.05.44-.16s.17-.23.17-.38c0-.18-.06-.33-.19-.45-.13-.12-.38-.28-.76-.46-.38-.19-.62-.36-.74-.51-.12-.15-.18-.34-.18-.56,0-.29.1-.54.3-.74.2-.2.46-.3.78-.3.14,0,.31.03.51.09.13.04.22.06.27.06.04,0,.07,0,.1-.03s.05-.06.08-.12h.13Z"/>
    <path d="M387.38,62.82v1.22h-.13c-.1-.38-.23-.64-.38-.78-.16-.14-.35-.21-.59-.21-.18,0-.33.05-.44.14-.11.1-.17.2-.17.32,0,.15.04.27.12.38.08.11.24.22.49.34l.57.28c.53.26.79.6.79,1.02,0,.33-.12.59-.37.79s-.52.3-.83.3c-.22,0-.47-.04-.75-.12-.09-.03-.16-.04-.21-.04-.06,0-.11.03-.14.1h-.13v-1.28h.13c.07.36.21.64.42.82.21.19.44.28.69.28.18,0,.33-.05.44-.16s.17-.23.17-.38c0-.18-.06-.33-.19-.45-.13-.12-.38-.28-.76-.46-.38-.19-.62-.36-.74-.51-.12-.15-.18-.34-.18-.56,0-.29.1-.54.3-.74.2-.2.46-.3.78-.3.14,0,.31.03.51.09.13.04.22.06.27.06.04,0,.07,0,.1-.03s.05-.06.08-.12h.13Z"/>
    <path d="M389.93,62.82c.54,0,.98.21,1.3.62.28.35.42.76.42,1.21,0,.32-.08.64-.23.97-.15.33-.37.58-.63.74s-.57.25-.9.25c-.54,0-.97-.21-1.29-.64-.27-.36-.4-.77-.4-1.22,0-.33.08-.65.24-.98.16-.32.38-.56.64-.72s.55-.23.84-.23ZM389.81,63.07c-.14,0-.28.04-.42.12-.14.08-.25.23-.34.43s-.13.47-.13.79c0,.52.1.97.31,1.35s.48.57.82.57c.25,0,.46-.1.62-.31s.25-.57.25-1.07c0-.64-.14-1.14-.41-1.5-.19-.25-.42-.38-.71-.38Z"/>
    <path d="M393.23,62.82v.8c.3-.54.61-.8.92-.8.14,0,.26.04.36.13s.14.19.14.3c0,.1-.03.19-.1.26-.07.07-.15.11-.24.11s-.19-.04-.31-.13-.2-.13-.25-.13c-.05,0-.1.03-.15.08-.12.11-.24.28-.36.53v1.71c0,.2.02.35.07.45.03.07.09.13.18.18s.21.07.37.07v.14h-1.83v-.14c.18,0,.32-.03.41-.09.06-.04.11-.11.14-.2.01-.04.02-.17.02-.38v-1.39c0-.42,0-.66-.03-.74-.02-.08-.05-.14-.09-.17-.05-.04-.1-.05-.17-.05-.08,0-.17.02-.27.06l-.04-.14,1.08-.44h.16Z"/>
    <path d="M397.16,62.82v1.22h-.13c-.1-.38-.23-.64-.38-.78-.16-.14-.35-.21-.59-.21-.18,0-.33.05-.44.14-.11.1-.17.2-.17.32,0,.15.04.27.12.38.08.11.24.22.49.34l.57.28c.53.26.79.6.79,1.02,0,.33-.12.59-.37.79s-.52.3-.83.3c-.22,0-.47-.04-.75-.12-.09-.03-.16-.04-.21-.04-.06,0-.11.03-.14.1h-.13v-1.28h.13c.07.36.21.64.42.82.21.19.44.28.69.28.18,0,.33-.05.44-.16s.17-.23.17-.38c0-.18-.06-.33-.19-.45-.13-.12-.38-.28-.76-.46-.38-.19-.62-.36-.74-.51-.12-.15-.18-.34-.18-.56,0-.29.1-.54.3-.74.2-.2.46-.3.78-.3.14,0,.31.03.51.09.13.04.22.06.27.06.04,0,.07,0,.1-.03s.05-.06.08-.12h.13Z"/>
  </g>
  <rect class="cls-8" x="7.2" y="51.93" width="57.6" height="14.4" rx="3.55" ry="3.55"/>
  <text class="cls-23" transform="translate(15.29 62.15)"><tspan x="0" y="0">M</tspan><tspan class="cls-32" x="8" y="0">L</tspan><tspan x="13.17" y="0" xml:space="preserve"> models</tspan></text>
  <rect class="cls-8" x="7.2" y="30.33" width="57.6" height="14.4" rx="3.74" ry="3.74"/>
  <rect class="cls-8" x="432.2" y="154.35" width="9.94" height="9.94" rx="3.19" ry="3.19"/>
  <text class="cls-23" transform="translate(16.75 40.22)"><tspan x="0" y="0">Processors</tspan></text>
  <path class="cls-8" d="M118.8,17.63h43.44c1.85,0,3.36,1.5,3.36,3.36v4.24c0,1.99-1.61,3.6-3.6,3.6h-43.2c-1.99,0-3.6-1.61-3.6-3.6v-3.99c0-1.99,1.61-3.6,3.6-3.6Z"/>
  <text class="cls-23" transform="translate(122.68 26.3) scale(.99 1)"><tspan class="cls-33" x="0" y="0">W</tspan><tspan x="7.77" y="0">orkflow</tspan></text>
  <rect class="cls-18" x="7.2" y="80.73" width="79.2" height="14.78"/>
  <text class="cls-23" transform="translate(17.47 91.05)"><tspan x="0" y="0">Characterization</tspan></text>
  <g>
    <path class="cls-4" d="M234,30.33c-11.93,0-21.6.95-21.6,2.12,0,0,0,0,0,0v15.51c0,1.17,9.67,2.12,21.6,2.12s21.6-.95,21.6-2.12v-15.51c0-1.17-9.67-2.12-21.6-2.12Z"/>
    <ellipse class="cls-4" cx="234" cy="32.45" rx="21.6" ry="2.12"/>
  </g>
  <text class="cls-22" transform="translate(221.55 44.71)"><tspan x="0" y="0">Sensors</tspan></text>
  <g>
    <path class="cls-4" d="M219,124.53c-15.91,0-28.8,1.27-28.8,2.83,0,0,0,0,0,0v14.14c0,1.56,12.89,2.83,28.8,2.83s28.8-1.27,28.8-2.83v-14.14c0-1.56-12.89-2.83-28.8-2.83Z"/>
    <ellipse class="cls-4" cx="219" cy="127.36" rx="28.8" ry="2.83"/>
  </g>
  <text class="cls-23" transform="translate(198.38 139.29)"><tspan x="0" y="0">Solar Panel </tspan></text>
  <g>
    <path class="cls-4" d="M219,147.73c-15.91,0-28.8,1.27-28.8,2.84,0,0,0,0,0,0v14.21c0,1.57,12.89,2.84,28.8,2.84s28.8-1.27,28.8-2.84v-14.21c0-1.57-12.89-2.84-28.8-2.84Z"/>
    <ellipse class="cls-4" cx="219" cy="150.58" rx="28.8" ry="2.84"/>
  </g>
  <text class="cls-23" transform="translate(201.51 162.35)"><tspan x="0" y="0">Capacitor </tspan></text>
  <g>
    <path class="cls-4" d="M219,170.93c-15.91,0-28.8,1.29-28.8,2.89,0,0,0,0,0,0v14.43c0,1.59,12.89,2.89,28.8,2.89s28.8-1.29,28.8-2.89v-14.43c0-1.59-12.89-2.89-28.8-2.89Z"/>
    <ellipse class="cls-4" cx="219" cy="173.82" rx="28.8" ry="2.89"/>
  </g>
  <text class="cls-23" transform="translate(205.75 185.86)"><tspan x="0" y="0">Battery</tspan></text>
  <g>
    <path class="cls-4" d="M300.45,30.33c-18.58,0-33.65.95-33.65,2.12,0,0,0,0,0,0v15.51c0,1.17,15.07,2.12,33.65,2.12s33.65-.95,33.65-2.12v-15.51c0-1.17-15.07-2.12-33.65-2.12Z"/>
    <ellipse class="cls-4" cx="300.45" cy="32.45" rx="33.65" ry="2.12"/>
  </g>
  <text class="cls-22" transform="translate(272.87 44.71)"><tspan class="cls-35" x="0" y="0">W</tspan><tspan x="7.23" y="0">ireless Modules</tspan></text>
  <g>
    <path d="M32.05,6.45c1.05-.04,1.91.27,2.57.92s.99,1.47.99,2.46c0,.84-.25,1.58-.74,2.22-.65.85-1.57,1.27-2.76,1.27s-2.11-.4-2.76-1.21c-.51-.64-.77-1.4-.77-2.27,0-.98.33-1.8,1-2.46s1.49-.96,2.47-.93ZM32.11,6.76c-.61,0-1.07.31-1.38.93-.26.51-.39,1.24-.39,2.19,0,1.13.2,1.96.6,2.5.28.38.66.57,1.16.57.34,0,.62-.08.84-.24.29-.21.51-.54.67-1s.24-1.05.24-1.79c0-.88-.08-1.53-.24-1.97s-.37-.74-.62-.92-.54-.27-.87-.27Z"/>
    <path d="M38.31,9.07v3.17c0,.31.03.5.1.58.1.12.3.18.58.17v.18h-2.69v-.18c.21,0,.35-.03.44-.07s.15-.1.18-.18.05-.24.05-.49v-3.17h-.66v-.48h.66v-.57c0-.47.17-.86.51-1.17s.81-.47,1.39-.47c.4,0,.7.07.89.22s.29.32.29.5c0,.15-.06.27-.18.38s-.28.16-.48.16c-.17,0-.3-.04-.4-.13s-.15-.19-.15-.29c0-.03,0-.09.03-.18.01-.06.02-.11.02-.16,0-.07-.02-.12-.06-.15-.05-.05-.12-.07-.19-.07-.09,0-.17.04-.24.12s-.1.2-.1.38v.85s0,.58,0,.58h.67v.48h-.67Z"/>
    <path d="M41.64,9.07v3.17c0,.31.03.5.1.58.1.12.3.18.58.17v.18h-2.69v-.18c.21,0,.35-.03.44-.07s.15-.1.18-.18.05-.24.05-.49v-3.17h-.66v-.48h.66v-.57c0-.47.17-.86.51-1.17s.81-.47,1.39-.47c.4,0,.7.07.89.22s.29.32.29.5c0,.15-.06.27-.18.38s-.28.16-.48.16c-.17,0-.3-.04-.4-.13s-.15-.19-.15-.29c0-.03,0-.09.03-.18.01-.06.02-.11.02-.16,0-.07-.02-.12-.06-.15-.05-.05-.12-.07-.19-.07-.09,0-.17.04-.24.12s-.1.2-.1.38v.85s0,.58,0,.58h.67v.48h-.67Z"/>
    <path d="M45.72,11.37h-2.85v-1.01h2.85v1.01Z"/>
    <path d="M52.27,10.83l-.25,2.32h-5.88v-.18h.22c.19,0,.35-.03.46-.1.08-.05.15-.12.2-.23.04-.08.05-.28.05-.62v-4.36c0-.34-.02-.55-.05-.63s-.11-.16-.22-.22-.26-.1-.44-.1h-.22v-.18h3.53v.18h-.29c-.19,0-.35.03-.46.1-.08.05-.15.12-.2.23-.04.08-.05.28-.05.62v4.22c0,.34.02.55.06.65s.12.16.23.21c.08.03.28.04.59.04h.55c.35,0,.64-.06.88-.19s.44-.32.61-.59.33-.66.49-1.18h.2Z"/>
    <path d="M54.75,8.59v3.62c0,.32.04.53.11.62s.22.14.44.15v.18h-2.47v-.18c.2,0,.35-.06.45-.18.06-.07.1-.27.1-.6v-2.67c0-.32-.04-.53-.11-.62s-.22-.14-.43-.15v-.18h1.91ZM54.07,6.38c.21,0,.39.07.54.22s.22.33.22.53-.07.39-.22.53-.33.22-.53.22-.39-.07-.53-.22-.22-.32-.22-.53.07-.39.22-.53.32-.22.53-.22Z"/>
    <path d="M57.61,8.59v.59c.23-.25.46-.44.67-.55s.45-.17.69-.17c.3,0,.54.08.74.25s.33.37.39.61c.05.19.08.54.08,1.07v1.78c0,.35.03.57.1.66s.2.14.4.16v.18h-2.31v-.18c.17-.02.3-.09.37-.21.05-.08.08-.28.08-.61v-2.03c0-.37-.01-.61-.04-.71s-.08-.17-.15-.23-.15-.08-.23-.08c-.28,0-.54.2-.78.6v2.45c0,.34.03.56.1.65s.18.15.35.17v.18h-2.31v-.18c.19-.02.33-.08.41-.19.06-.07.08-.28.08-.63v-2.58c0-.35-.03-.56-.1-.64s-.2-.14-.4-.17v-.18h1.86Z"/>
    <path d="M65.17,10.71h-2.5c.03.61.19,1.08.48,1.44.22.27.49.41.81.41.2,0,.37-.05.53-.16s.33-.31.51-.59l.17.11c-.25.5-.52.86-.82,1.07s-.65.31-1.04.31c-.68,0-1.19-.26-1.54-.78-.28-.42-.42-.94-.42-1.56,0-.76.21-1.37.62-1.82s.89-.68,1.45-.68c.46,0,.86.19,1.2.57s.52.94.55,1.69ZM63.97,10.39c0-.52-.03-.88-.09-1.08s-.15-.34-.27-.44c-.07-.06-.16-.09-.27-.09-.17,0-.31.08-.42.25-.19.29-.29.69-.29,1.19v.17h1.33Z"/>
    <path d="M30.7,22.16v1.84c0,.36.02.58.07.68s.12.17.23.22.32.08.62.08v.18h-3.36v-.18c.31,0,.51-.03.62-.09s.19-.13.23-.22.07-.32.07-.67v-4.3c0-.36-.02-.58-.07-.68s-.12-.17-.23-.22-.32-.08-.62-.08v-.18h2.89c.95,0,1.63.17,2.05.51s.62.76.62,1.27c0,.43-.13.8-.4,1.1s-.63.51-1.1.62c-.32.08-.85.12-1.6.12ZM30.7,18.92v2.86c.11,0,.19,0,.24,0,.4,0,.7-.12.92-.35s.32-.6.32-1.1-.11-.85-.32-1.08-.54-.34-.96-.34h-.2Z"/>
    <path d="M36.34,20.59v1.04c.3-.47.57-.79.8-.94s.45-.23.66-.23c.18,0,.33.06.44.17s.16.27.16.48c0,.22-.05.39-.16.51s-.23.18-.38.18c-.17,0-.32-.06-.45-.17s-.2-.17-.22-.19c-.03-.02-.07-.03-.11-.03-.09,0-.18.04-.27.11-.13.11-.23.27-.3.47-.1.32-.16.66-.16,1.04v1.32c0,.19.02.3.04.36.04.09.1.15.17.19s.21.07.39.08v.18h-2.47v-.18c.2-.02.33-.07.4-.16s.1-.34.1-.73v-2.52c0-.26-.01-.43-.04-.5-.03-.09-.08-.16-.14-.2s-.17-.07-.33-.09v-.18h1.87Z"/>
    <path d="M40.86,20.46c.4,0,.77.1,1.11.31s.6.5.78.87.27.79.27,1.24c0,.65-.16,1.19-.49,1.63-.4.53-.95.79-1.65.79s-1.22-.24-1.59-.72-.56-1.04-.56-1.67.19-1.22.57-1.71.9-.73,1.56-.73ZM40.88,20.8c-.17,0-.31.06-.43.19s-.2.37-.23.74-.06.88-.06,1.54c0,.35.02.67.07.98.04.23.11.41.23.53s.25.18.4.18.27-.04.37-.12c.13-.11.21-.27.25-.46.06-.31.1-.93.1-1.88,0-.55-.03-.93-.09-1.14s-.15-.36-.27-.45c-.08-.07-.2-.1-.33-.1Z"/>
    <path d="M45.71,21.07v3.17c0,.31.03.5.1.58.1.12.3.18.58.17v.18h-2.69v-.18c.21,0,.35-.03.44-.07s.15-.1.18-.18.05-.24.05-.49v-3.17h-.66v-.48h.66v-.57c0-.47.17-.86.51-1.17s.81-.47,1.39-.47c.4,0,.7.07.89.22s.29.32.29.5c0,.15-.06.27-.18.38s-.28.16-.48.16c-.17,0-.3-.04-.4-.13s-.15-.19-.15-.29c0-.03,0-.09.03-.18.01-.06.02-.11.02-.16,0-.07-.02-.12-.06-.15-.05-.05-.12-.07-.19-.07-.09,0-.17.04-.24.12s-.1.2-.1.38v.85s0,.58,0,.58h.67v.48h-.67Z"/>
    <path d="M48.82,20.59v3.62c0,.32.04.53.11.62s.22.14.44.15v.18h-2.47v-.18c.2,0,.35-.06.45-.18.06-.07.1-.27.1-.6v-2.67c0-.32-.04-.53-.11-.62s-.22-.14-.43-.15v-.18h1.91ZM48.14,18.38c.21,0,.39.07.54.22s.22.33.22.53-.07.39-.22.53-.33.22-.53.22-.39-.07-.53-.22-.22-.32-.22-.53.07-.39.22-.53.32-.22.53-.22Z"/>
    <path d="M51.6,18.54v5.67c0,.32.04.53.11.62s.22.14.44.15v.18h-2.47v-.18c.2,0,.35-.06.45-.18.06-.07.1-.27.1-.6v-4.73c0-.32-.04-.52-.11-.61s-.22-.14-.43-.15v-.18h1.91Z"/>
    <path d="M54.38,20.59v3.62c0,.32.04.53.11.62s.22.14.44.15v.18h-2.47v-.18c.2,0,.35-.06.45-.18.06-.07.1-.27.1-.6v-2.67c0-.32-.04-.53-.11-.62s-.22-.14-.43-.15v-.18h1.91ZM53.69,18.38c.21,0,.39.07.54.22s.22.33.22.53-.07.39-.22.53-.33.22-.53.22-.39-.07-.53-.22-.22-.32-.22-.53.07-.39.22-.53.32-.22.53-.22Z"/>
    <path d="M57.24,20.59v.59c.23-.25.46-.44.67-.55s.45-.17.69-.17c.3,0,.54.08.74.25s.33.37.39.61c.05.19.08.54.08,1.07v1.78c0,.35.03.57.1.66s.2.14.4.16v.18h-2.31v-.18c.17-.02.3-.09.37-.21.05-.08.08-.28.08-.61v-2.03c0-.37-.01-.61-.04-.71s-.08-.17-.15-.23-.15-.08-.23-.08c-.28,0-.54.2-.78.6v2.45c0,.34.03.56.1.65s.18.15.35.17v.18h-2.31v-.18c.19-.02.33-.08.41-.19.06-.07.08-.28.08-.63v-2.58c0-.35-.03-.56-.1-.64s-.2-.14-.4-.17v-.18h1.86Z"/>
    <path d="M63.86,20.65h1.54v.54h-.87c.16.16.27.3.33.43.08.18.12.36.12.55,0,.33-.09.61-.27.85s-.43.43-.74.56-.59.2-.83.2c-.02,0-.21,0-.59-.02-.15,0-.27.05-.37.14s-.15.21-.15.34c0,.12.04.21.13.29s.24.11.44.11h.84c.68,0,1.15.06,1.41.21.37.21.55.53.55.96,0,.28-.08.53-.25.75s-.39.39-.67.5c-.42.16-.9.24-1.45.24-.41,0-.78-.04-1.12-.12s-.58-.19-.73-.33-.22-.29-.22-.45.06-.28.17-.4.32-.22.63-.3c-.42-.21-.63-.5-.63-.87,0-.22.09-.44.26-.65s.45-.4.82-.55c-.44-.16-.75-.37-.95-.63s-.29-.56-.29-.9c0-.45.18-.83.55-1.16s.83-.49,1.41-.49c.3,0,.62.06.94.19ZM62.73,25.83c-.33,0-.55.03-.66.08-.19.1-.28.24-.28.41s.1.32.29.45.55.2,1.08.2c.45,0,.81-.06,1.07-.18s.39-.29.39-.51c0-.08-.02-.15-.07-.21-.09-.1-.22-.16-.4-.2s-.65-.05-1.42-.05ZM63.02,20.76c-.19,0-.35.1-.48.29s-.2.58-.2,1.18c0,.48.06.82.19,1s.28.27.46.27c.2,0,.36-.09.49-.27s.2-.53.2-1.04c0-.58-.07-.98-.22-1.19-.1-.16-.25-.23-.44-.23Z"/>
  </g>
  <text class="cls-20" transform="translate(234.53 10.4)"><tspan x="0" y="0">Framework</tspan></text>
  <g>
    <path class="cls-4" d="M382.2,15.93c-19.88,0-36,.92-36,2.05,0,0,0,0,0,0v15.01c0,1.13,16.12,2.05,36,2.05s36-.92,36-2.05v-15.01c0-1.13-16.12-2.05-36-2.05Z"/>
    <ellipse class="cls-4" cx="382.2" cy="17.98" rx="36" ry="2.05"/>
  </g>
  <g>
    <path d="M361.16,23.41l.12,1.8h-.12c-.16-.54-.39-.93-.69-1.16s-.66-.36-1.08-.36c-.35,0-.67.09-.95.27s-.51.46-.67.85-.24.88-.24,1.46c0,.48.08.89.23,1.25s.38.62.69.81.66.28,1.06.28c.34,0,.65-.07.91-.22s.55-.44.87-.88l.12.08c-.27.47-.58.82-.93,1.04s-.78.33-1.26.33c-.88,0-1.56-.33-2.04-.98-.36-.48-.54-1.05-.54-1.71,0-.53.12-1.01.36-1.46s.56-.79.98-1.03.87-.37,1.36-.37c.38,0,.76.09,1.13.28.11.06.19.09.23.09.07,0,.13-.02.18-.07.07-.07.12-.17.14-.29h.14Z"/>
    <path d="M362.98,23.27v2.62c.29-.32.52-.52.69-.61s.34-.13.51-.13c.2,0,.38.06.52.17s.25.29.32.53c.05.17.07.47.07.91v1.27c0,.23.02.38.05.46.03.06.07.11.13.15s.18.05.34.05v.14h-1.76v-.14h.08c.17,0,.28-.03.35-.08s.11-.13.14-.22c0-.04.01-.16.01-.37v-1.27c0-.39-.02-.65-.06-.77s-.11-.21-.19-.28-.2-.09-.32-.09-.26.03-.4.1-.3.2-.5.41v1.89c0,.24.01.4.04.46s.08.11.15.15.2.06.38.06v.14h-1.77v-.14c.16,0,.28-.02.38-.07.05-.03.09-.08.12-.15s.05-.22.05-.45v-3.24c0-.41,0-.66-.03-.75s-.05-.16-.09-.19-.09-.05-.16-.05c-.05,0-.14.02-.27.06l-.05-.14,1.07-.44h.18Z"/>
    <path d="M367.96,28.31c-.37.28-.6.45-.69.49-.14.06-.29.1-.45.1-.25,0-.45-.08-.61-.25s-.24-.39-.24-.67c0-.17.04-.33.12-.45.11-.18.29-.34.56-.5s.7-.35,1.32-.57v-.14c0-.36-.06-.6-.17-.73s-.28-.2-.49-.2c-.16,0-.29.04-.39.13-.1.09-.15.19-.15.3v.23c0,.12-.02.21-.08.28s-.14.1-.24.1-.18-.03-.24-.1-.09-.16-.09-.28c0-.22.12-.43.34-.62s.55-.28.96-.28c.32,0,.58.05.78.16.15.08.27.21.34.38.05.11.07.34.07.69v1.21c0,.34,0,.55.02.63s.04.13.06.15.06.04.1.04c.04,0,.08,0,.11-.03.05-.03.16-.13.32-.29v.22c-.29.39-.57.59-.84.59-.13,0-.23-.04-.3-.13s-.12-.24-.12-.45ZM367.96,28.05v-1.36c-.39.16-.65.27-.76.33-.21.11-.35.23-.44.36s-.13.26-.13.41c0,.19.06.34.17.47s.24.19.39.19c.2,0,.46-.13.78-.39Z"/>
    <path d="M370.53,25.14v.8c.3-.54.61-.8.92-.8.14,0,.26.04.36.13s.14.19.14.3c0,.1-.03.19-.1.26s-.15.11-.24.11-.19-.04-.31-.13-.2-.13-.25-.13c-.05,0-.1.03-.15.08-.12.11-.24.28-.36.53v1.71c0,.2.03.35.07.45.03.07.09.13.18.18s.21.07.37.07v.14h-1.83v-.14c.18,0,.32-.03.41-.09.06-.04.11-.11.14-.2.01-.04.02-.17.02-.38v-1.39c0-.42,0-.66-.03-.74s-.05-.14-.09-.17-.1-.05-.17-.05c-.08,0-.17.02-.27.06l-.04-.14,1.08-.44h.16Z"/>
    <path d="M374.17,28.31c-.37.28-.6.45-.69.49-.14.06-.29.1-.45.1-.25,0-.45-.08-.61-.25s-.24-.39-.24-.67c0-.17.04-.33.12-.45.11-.18.29-.34.56-.5s.7-.35,1.32-.57v-.14c0-.36-.06-.6-.17-.73s-.28-.2-.49-.2c-.16,0-.29.04-.39.13-.1.09-.15.19-.15.3v.23c0,.12-.02.21-.08.28s-.14.1-.24.1-.18-.03-.24-.1-.09-.16-.09-.28c0-.22.12-.43.34-.62s.55-.28.96-.28c.32,0,.58.05.78.16.15.08.27.21.34.38.05.11.07.34.07.69v1.21c0,.34,0,.55.02.63s.04.13.06.15.06.04.1.04c.04,0,.08,0,.11-.03.05-.03.16-.13.32-.29v.22c-.29.39-.57.59-.84.59-.13,0-.23-.04-.3-.13s-.12-.24-.12-.45ZM374.17,28.05v-1.36c-.39.16-.65.27-.76.33-.21.11-.35.23-.44.36s-.13.26-.13.41c0,.19.06.34.17.47s.24.19.39.19c.2,0,.46-.13.78-.39Z"/>
    <path d="M378.73,27.46c-.1.47-.29.83-.57,1.09s-.59.38-.93.38c-.41,0-.76-.17-1.06-.51s-.45-.8-.45-1.38.17-1.02.5-1.37.74-.53,1.21-.53c.35,0,.64.09.87.28s.34.38.34.58c0,.1-.03.18-.1.24s-.15.09-.27.09c-.15,0-.27-.05-.35-.15-.04-.05-.07-.16-.09-.31s-.07-.27-.16-.35c-.09-.08-.22-.12-.38-.12-.26,0-.47.1-.63.29-.21.26-.32.59-.32,1.01s.11.8.31,1.13.49.49.85.49c.26,0,.48-.09.69-.26.14-.12.28-.34.42-.65l.11.05Z"/>
    <path d="M380.28,24.07v1.18h.84v.27h-.84v2.32c0,.23.03.39.1.47s.15.12.26.12c.09,0,.17-.03.25-.08s.14-.13.19-.24h.15c-.09.26-.22.45-.39.58s-.34.19-.52.19c-.12,0-.24-.03-.35-.1s-.2-.16-.25-.29-.08-.31-.08-.57v-2.41h-.57v-.13c.14-.06.29-.15.44-.29s.28-.3.4-.49c.06-.1.14-.28.25-.54h.12Z"/>
    <path d="M382.07,26.59c0,.53.13.95.39,1.25s.57.45.92.45c.23,0,.44-.06.61-.19s.32-.35.44-.66l.12.08c-.05.36-.21.68-.48.97s-.59.44-.99.44c-.43,0-.8-.17-1.1-.5s-.46-.78-.46-1.35c0-.61.16-1.09.47-1.43s.71-.51,1.18-.51c.4,0,.73.13.99.4s.39.62.39,1.06h-2.47ZM382.07,26.37h1.66c-.01-.23-.04-.39-.08-.48-.06-.15-.16-.26-.29-.34s-.26-.12-.4-.12c-.22,0-.41.08-.58.25s-.27.4-.3.7Z"/>
    <path d="M386.06,25.14v.8c.3-.54.61-.8.92-.8.14,0,.26.04.36.13s.14.19.14.3c0,.1-.03.19-.1.26s-.15.11-.24.11-.19-.04-.31-.13-.2-.13-.25-.13c-.05,0-.1.03-.15.08-.12.11-.24.28-.36.53v1.71c0,.2.03.35.07.45.03.07.09.13.18.18s.21.07.37.07v.14h-1.83v-.14c.18,0,.32-.03.41-.09.06-.04.11-.11.14-.2.01-.04.02-.17.02-.38v-1.39c0-.42,0-.66-.03-.74s-.05-.14-.09-.17-.1-.05-.17-.05c-.08,0-.17.02-.27.06l-.04-.14,1.08-.44h.16Z"/>
    <path d="M388.92,25.14v2.88c0,.22.02.37.05.45s.08.13.14.17.18.05.35.05v.14h-1.74v-.14c.17,0,.29-.02.35-.05s.11-.09.14-.17.05-.23.05-.45v-1.38c0-.39-.01-.64-.04-.75-.02-.08-.05-.14-.09-.17s-.09-.05-.16-.05c-.07,0-.16.02-.27.06l-.05-.14,1.08-.44h.17ZM388.59,23.27c.11,0,.2.04.28.12s.12.17.12.28-.04.2-.12.28-.17.12-.28.12-.2-.04-.28-.12-.12-.17-.12-.28.04-.2.12-.28.17-.12.28-.12Z"/>
    <path d="M393.01,27.73l-.04,1.1h-3.16v-.14l2.38-3.16h-1.17c-.25,0-.42.02-.5.05s-.14.09-.19.19c-.07.13-.11.29-.12.48h-.16l.02-.99h3v.14l-2.4,3.17h1.3c.27,0,.46-.02.56-.07s.18-.13.24-.24c.04-.08.08-.26.11-.53h.13Z"/>
    <path d="M395.48,28.31c-.37.28-.6.45-.69.49-.14.06-.29.1-.45.1-.25,0-.45-.08-.61-.25s-.24-.39-.24-.67c0-.17.04-.33.12-.45.11-.18.29-.34.56-.5s.7-.35,1.32-.57v-.14c0-.36-.06-.6-.17-.73s-.28-.2-.49-.2c-.16,0-.29.04-.39.13-.1.09-.15.19-.15.3v.23c0,.12-.02.21-.08.28s-.14.1-.24.1-.18-.03-.24-.1-.09-.16-.09-.28c0-.22.12-.43.34-.62s.55-.28.96-.28c.32,0,.58.05.78.16.15.08.27.21.34.38.05.11.07.34.07.69v1.21c0,.34,0,.55.02.63s.04.13.06.15.06.04.1.04c.04,0,.08,0,.11-.03.05-.03.16-.13.32-.29v.22c-.29.39-.57.59-.84.59-.13,0-.23-.04-.3-.13s-.12-.24-.12-.45ZM395.48,28.05v-1.36c-.39.16-.65.27-.76.33-.21.11-.35.23-.44.36s-.13.26-.13.41c0,.19.06.34.17.47s.24.19.39.19c.2,0,.46-.13.78-.39Z"/>
    <path d="M398.04,24.07v1.18h.84v.27h-.84v2.32c0,.23.03.39.1.47s.15.12.26.12c.09,0,.17-.03.25-.08s.14-.13.19-.24h.15c-.09.26-.22.45-.39.58s-.34.19-.52.19c-.12,0-.24-.03-.35-.1s-.2-.16-.25-.29-.08-.31-.08-.57v-2.41h-.57v-.13c.14-.06.29-.15.44-.29s.28-.3.4-.49c.06-.1.14-.28.25-.54h.12Z"/>
    <path d="M400.46,25.14v2.88c0,.22.02.37.05.45s.08.13.14.17.18.05.35.05v.14h-1.74v-.14c.17,0,.29-.02.35-.05s.11-.09.14-.17.05-.23.05-.45v-1.38c0-.39-.01-.64-.04-.75-.02-.08-.05-.14-.09-.17s-.09-.05-.16-.05c-.07,0-.16.02-.27.06l-.05-.14,1.08-.44h.17ZM400.14,23.27c.11,0,.2.04.28.12s.12.17.12.28-.04.2-.12.28-.17.12-.28.12-.2-.04-.28-.12-.12-.17-.12-.28.04-.2.12-.28.17-.12.28-.12Z"/>
    <path d="M403.2,25.14c.54,0,.98.21,1.3.62.28.35.42.76.42,1.21,0,.32-.08.64-.23.97s-.37.58-.63.74-.57.25-.9.25c-.54,0-.97-.21-1.29-.64-.27-.36-.4-.77-.4-1.22,0-.33.08-.65.24-.98s.38-.56.64-.72.55-.23.84-.23ZM403.08,25.39c-.14,0-.28.04-.42.12s-.25.23-.34.43-.13.47-.13.79c0,.52.1.97.31,1.35s.48.57.82.57c.25,0,.46-.1.62-.31s.25-.57.25-1.07c0-.64-.14-1.14-.41-1.5-.19-.25-.42-.38-.71-.38Z"/>
    <path d="M406.49,25.9c.42-.51.82-.76,1.2-.76.2,0,.36.05.5.15s.25.26.34.48c.06.16.09.4.09.72v1.53c0,.23.02.38.05.46.03.06.07.12.14.15s.18.05.35.05v.14h-1.77v-.14h.07c.17,0,.28-.03.35-.08s.11-.13.14-.22c0-.04.02-.16.02-.37v-1.46c0-.33-.04-.56-.13-.71s-.23-.22-.43-.22c-.31,0-.62.17-.93.51v1.89c0,.24.01.39.04.45.04.08.09.13.15.17s.19.05.39.05v.14h-1.77v-.14h.08c.18,0,.3-.05.37-.14s.1-.27.1-.53v-1.33c0-.43,0-.69-.03-.79s-.05-.16-.09-.19-.09-.05-.16-.05c-.07,0-.16.02-.26.06l-.06-.14,1.08-.44h.17v.76Z"/>
  </g>
  <text class="cls-26" transform="translate(440.02 14.19)"><tspan x="0" y="0">List of Potential </tspan><tspan x="13.12" y="9.6">Systems</tspan></text>
  <g>
    <rect class="cls-1" x="437" y="27.53" width="28.8" height="14.4"/>
    <text class="cls-22" transform="translate(444.68 37.11)"><tspan x="0" y="0">CO</tspan></text>
    <text class="cls-22" transform="translate(455.79 39.78) scale(.58)"><tspan x="0" y="0">2</tspan></text>
  </g>
  <g>
    <rect class="cls-1" x="473" y="27.53" width="21.6" height="14.4"/>
    <text class="cls-22" transform="translate(481.8 37.59)"><tspan x="0" y="0">$</tspan></text>
  </g>
  <g>
    <rect class="cls-1" x="473" y="45.13" width="21.6" height="14.4"/>
    <text class="cls-22" transform="translate(477.14 55.06)"><tspan x="0" y="0">Perf</tspan></text>
  </g>
  <g>
    <rect class="cls-1" x="437" y="45.13" width="28.8" height="14.4"/>
    <text class="cls-22" transform="translate(439.92 54.7)"><tspan x="0" y="0">Ene</tspan><tspan class="cls-34" x="12.44" y="0">r</tspan><tspan x="14.96" y="0">gy</tspan></text>
  </g>
  <g>
    <rect class="cls-1" x="437" y="62.73" width="43.2" height="14.4"/>
    <text class="cls-22" transform="translate(443.28 71.99)"><tspan x="0" y="0">Accuracy</tspan></text>
  </g>
  <text class="cls-22" transform="translate(447.16 134.36)"><tspan x="0" y="0">Database</tspan></text>
  <text class="cls-22" transform="translate(447.16 146.11)"><tspan x="0" y="0">Selected </tspan><tspan x="0" y="6">Component</tspan></text>
  <text class="cls-22" transform="translate(447.16 161.71)"><tspan x="0" y="0">Input</tspan></text>
  <text class="cls-22" transform="translate(447.16 176.09)"><tspan class="cls-36" x="0" y="0">T</tspan><tspan x="4.61" y="0">race</tspan></text>
  <text class="cls-22" transform="translate(447.16 189.97)"><tspan x="0" y="0">Process</tspan></text>
  <g>
    <polyline class="cls-10" points="445.23 81.56 445.23 111.28 493.46 111.28"/>
    <polygon points="443.53 83.55 445.23 81.86 446.92 83.55 446.92 82.11 445.23 80.42 443.53 82.11 443.53 83.55"/>
    <polygon points="491.47 112.97 493.16 111.28 491.47 109.58 492.9 109.58 494.6 111.28 492.9 112.97 491.47 112.97"/>
  </g>
  <g>
    <path class="cls-4" d="M46.8,109.93c-21.87,0-39.6.97-39.6,2.17,0,0,0,0,0,0v15.91c0,1.2,17.73,2.17,39.6,2.17s39.6-.97,39.6-2.17v-15.91c0-1.2-17.73-2.17-39.6-2.17Z"/>
    <ellipse class="cls-4" cx="46.8" cy="112.1" rx="39.6" ry="2.17"/>
  </g>
  <text class="cls-23" transform="translate(18.11 124.33)"><tspan x="0" y="0">Characterization</tspan></text>
  <text class="cls-23" transform="translate(10.39 147.66)"><tspan x="0" y="0">Runtime and ene</tspan><tspan class="cls-34" x="60.98" y="0">r</tspan><tspan x="63.82" y="0">gy </tspan><tspan x="7.91" y="10.8">profiling of M</tspan><tspan class="cls-32" x="59.41" y="10.8">L</tspan><tspan x="64.57" y="10.8"> </tspan><tspan x="2.66" y="21.6">models running on </tspan><tspan x="9.8" y="32.4">each processor</tspan></text>
  <g>
    <path class="cls-4" d="M369.77,167.73c-20.73,0-37.53,1.38-37.53,3.09,0,0,0,0,0,0v22.63c0,1.7,16.8,3.09,37.53,3.09s37.53-1.38,37.53-3.09v-22.63c0-1.7-16.8-3.09-37.53-3.09Z"/>
    <ellipse class="cls-4" cx="369.77" cy="170.82" rx="37.53" ry="3.09"/>
  </g>
  <g>
    <path class="cls-4" d="M436.97,127.36c-2.63,0-4.77.48-4.77,1.08,0,0,0,0,0,0v7.93c0,.6,2.14,1.08,4.77,1.08s4.77-.48,4.77-1.08v-7.93c0-.6-2.14-1.08-4.77-1.08Z"/>
    <ellipse class="cls-4" cx="436.97" cy="128.44" rx="4.77" ry="1.08"/>
  </g>
  <text class="cls-23" transform="translate(343.59 187.86)"><tspan x="0" y="0">Carbon &amp; Cost </tspan></text>
  <path class="cls-3" d="M348.6,111.07h50.4c3.97,0,7.2,3.23,7.2,7.2v39.46h-50.4c-3.97,0-7.2-3.23-7.2-7.2v-39.46h0Z"/>
  <text class="cls-23" transform="translate(351.07 121.05)"><tspan x="0" y="0">Power System </tspan><tspan x="2.68" y="10.8">Candidates + </tspan><tspan x="7.84" y="21.6">Peripheral </tspan><tspan x="3.58" y="32.4">Components</tspan></text>
  <rect class="cls-18" x="265.2" y="120.43" width="57.6" height="68.39"/>
  <text class="cls-23" transform="translate(280.86 128.95)"><tspan x="0" y="0">Ene</tspan><tspan class="cls-34" x="13.99" y="0">r</tspan><tspan x="16.83" y="0">gy </tspan><tspan x="-7.95" y="10.8">Capacity of </tspan><tspan x="-12.96" y="21.6">Power System </tspan><tspan x="-9.21" y="32.4">Required by </tspan><tspan x="-8.96" y="43.2">Sensing and </tspan><tspan x="-3.59" y="54">Compute </tspan></text>
  <g>
    <line class="cls-9" x1="93.6" y1="1.53" x2="93.6" y2="3.03"/>
    <line class="cls-13" x1="93.6" y1="6.02" x2="93.6" y2="195.74"/>
    <line class="cls-9" x1="93.6" y1="197.23" x2="93.6" y2="198.73"/>
  </g>
  <g>
    <path d="M104.17,36.78c-.02.15-.03.27-.03.36,0,.26.09.48.28.67s.41.27.67.27c.21,0,.41-.04.61-.13.19-.09.48-.28.87-.57l.09.13c-.69.69-1.36,1.03-1.99,1.03-.43,0-.75-.13-.97-.4s-.33-.57-.33-.89c0-.44.13-.88.4-1.34s.61-.81,1.02-1.07.83-.38,1.26-.38c.31,0,.54.06.69.19s.22.28.22.45c0,.24-.1.48-.29.7-.25.29-.63.52-1.12.7-.33.12-.79.21-1.38.28ZM104.21,36.56c.43-.05.79-.13,1.06-.25.36-.16.63-.35.81-.58.18-.22.27-.44.27-.64,0-.12-.04-.22-.12-.3-.08-.08-.19-.11-.33-.11-.3,0-.62.16-.95.48-.34.32-.58.79-.74,1.41Z"/>
    <path d="M107.84,37.65c.13,0,.23.04.32.13.09.09.13.19.13.31s-.04.23-.13.31c-.09.09-.19.13-.32.13s-.23-.04-.31-.13c-.09-.09-.13-.19-.13-.31s.04-.23.13-.31c.09-.09.19-.13.31-.13Z"/>
    <path d="M114.04,34.73l-.13.46h-.73c.06.16.08.31.08.44,0,.39-.16.73-.49,1.03-.33.3-.79.47-1.36.5-.31.09-.54.21-.7.33-.06.05-.09.1-.09.15,0,.06.03.11.08.16.05.05.19.1.4.15l.85.2c.47.11.78.24.94.4.15.16.22.33.22.54,0,.24-.09.46-.27.66-.18.2-.44.35-.78.47-.34.11-.72.17-1.13.17-.36,0-.69-.04-.99-.13s-.51-.2-.64-.35-.19-.3-.19-.45c0-.13.04-.26.13-.39.08-.14.19-.25.31-.34.08-.06.3-.19.67-.4-.13-.11-.2-.22-.2-.35,0-.12.06-.24.18-.37.12-.13.37-.28.75-.44-.32-.06-.58-.2-.77-.4-.19-.21-.28-.44-.28-.69,0-.42.18-.79.55-1.12.36-.33.85-.49,1.46-.49.22,0,.4.02.54.07s.28.11.41.21h1.19ZM110.41,38.43c-.24.11-.42.25-.54.42s-.18.34-.18.5c0,.19.09.35.26.48.25.18.62.27,1.11.27.42,0,.78-.07,1.07-.21.3-.14.45-.33.45-.55,0-.11-.06-.22-.16-.33-.11-.1-.32-.19-.64-.25-.17-.04-.63-.15-1.37-.33ZM112.51,35.42c0-.23-.07-.42-.2-.55-.13-.13-.3-.2-.51-.2-.33,0-.6.17-.82.5-.21.33-.32.68-.32,1.04,0,.23.07.41.21.55s.3.22.5.22c.16,0,.31-.04.45-.13.15-.08.27-.2.37-.35s.18-.34.24-.57.09-.4.09-.5Z"/>
    <path d="M114.59,37.65c.13,0,.23.04.32.13.09.09.13.19.13.31s-.04.23-.13.31c-.09.09-.19.13-.32.13s-.23-.04-.31-.13c-.09-.09-.13-.19-.13-.31s.04-.23.13-.31c.09-.09.19-.13.31-.13Z"/>
    <path d="M103.48,43.15l-1.42,4.93c-.08.29-.12.5-.12.63,0,.11.04.19.11.25.08.06.25.1.53.12l-.04.16h-2.26l.06-.16c.24,0,.4-.02.47-.06.12-.05.22-.12.28-.21.1-.13.19-.38.29-.73l1.02-3.54c.06-.21.1-.34.1-.37,0-.06.01-.12.01-.17,0-.1-.03-.18-.08-.24s-.13-.09-.23-.09c-.08,0-.19.02-.36.05l-.06-.16,1.48-.41h.21Z"/>
    <path d="M108.7,49.07l-.05.16h-2.45l.06-.16c.25,0,.41-.03.49-.06.13-.05.22-.12.29-.21.1-.14.2-.38.3-.74l1.04-3.59c.09-.3.13-.52.13-.68,0-.08-.02-.14-.06-.19s-.1-.09-.17-.12c-.08-.03-.23-.04-.46-.04l.05-.16h2.3l-.05.16c-.19,0-.33.02-.42.06-.13.06-.23.14-.3.25-.07.11-.16.35-.27.72l-1.03,3.59c-.09.33-.14.54-.14.63,0,.07.02.14.05.19.04.05.1.09.18.12s.25.05.5.07Z"/>
    <path d="M110.88,43.27h2.35c.62,0,1.08.13,1.38.4.3.27.46.59.46.97,0,.3-.1.59-.29.88s-.48.52-.86.69c-.38.18-.79.27-1.23.27-.28,0-.63-.05-1.05-.15l-.47,1.63c-.11.39-.17.64-.17.76,0,.09.04.17.12.23s.27.1.57.12l-.04.16h-2.37l.05-.16c.31,0,.53-.05.65-.16.12-.11.25-.4.39-.89l.98-3.39c.12-.41.18-.68.18-.82,0-.1-.04-.19-.13-.25-.08-.07-.27-.11-.55-.12l.05-.16ZM111.7,46.05c.33.08.6.13.8.13.32,0,.61-.07.87-.2.26-.13.47-.33.62-.59.15-.26.22-.54.22-.82s-.09-.53-.27-.7-.46-.26-.83-.26c-.2,0-.44.02-.73.07l-.69,2.37Z"/>
    <path d="M115.03,49.37l.49-2.21h.15c-.02.21-.03.39-.03.53,0,.4.13.73.38.98s.59.38,1,.38c.38,0,.68-.12.87-.35s.3-.51.3-.82c0-.2-.05-.38-.14-.54-.14-.24-.51-.67-1.1-1.28-.29-.29-.48-.51-.56-.65-.13-.24-.2-.49-.2-.75,0-.42.16-.77.47-1.07s.71-.44,1.2-.44c.16,0,.32.02.47.05.09.02.26.08.5.18.17.07.26.1.28.11.04,0,.09.01.14.01.08,0,.16-.02.22-.07s.13-.14.22-.28h.17l-.46,1.98h-.15c.01-.18.02-.32.02-.43,0-.35-.12-.64-.35-.87s-.54-.34-.93-.34c-.3,0-.55.09-.74.27s-.29.39-.29.62c0,.21.06.4.18.59.12.19.4.49.84.91.44.42.72.75.85.98s.19.49.19.75c0,.3-.08.59-.24.88-.16.28-.39.5-.69.66s-.63.23-.98.23c-.18,0-.34-.02-.49-.05s-.4-.11-.73-.24c-.11-.04-.21-.07-.29-.07-.17,0-.31.12-.4.35h-.17Z"/>
  </g>
  <text class="cls-24" transform="translate(155.15 42.39)"><tspan x="0" y="0">Y</tspan></text>
  <rect class="cls-30" x="97.73" y="160.22" width="55.73" height="38.51"/>
  <rect class="cls-8" x="100.8" y="163.96" width="50.4" height="13.78" rx="3.71" ry="3.71"/>
  <text class="cls-23" transform="translate(102.88 173.66)"><tspan x="0" y="0">Power Mode</tspan></text>
  <text class="cls-29" transform="translate(100.8 185.23)"><tspan x="0" y="0">e.g. solar </tspan><tspan x="0" y="10.8">harvesting</tspan></text>
  <text class="cls-29" transform="translate(100.8 143.63)"><tspan x="0" y="0">e.g. indoors, </tspan><tspan x="0" y="10.8">near window</tspan></text>
  <g>
    <polyline class="cls-10" points="140.62 58.44 140.62 61.33 122.4 61.33 122.4 32.53 140.62 32.53 140.62 39.73"/>
    <polygon points="137.62 59.31 140.62 54.13 143.61 59.31 137.62 59.31"/>
  </g>
  <g>
    <polyline class="cls-10" points="165.6 22.23 337.77 22.23 341.29 22.23"/>
    <polygon points="340.42 25.22 345.6 22.23 340.42 19.24 340.42 25.22"/>
  </g>
  <g>
    <line class="cls-10" x1="234.53" y1="50.53" x2="234.53" y2="53.43"/>
    <polygon points="231.53 52.55 234.53 57.73 237.52 52.55 231.53 52.55"/>
  </g>
  <g>
    <line class="cls-10" x1="301.4" y1="50.53" x2="301.4" y2="53.43"/>
    <polygon points="298.41 52.55 301.4 57.73 304.39 52.55 298.41 52.55"/>
  </g>
  <g>
    <line class="cls-10" x1="317.63" y1="77.78" x2="317.63" y2="85.08"/>
    <polygon points="314.64 84.2 317.63 89.38 320.62 84.2 314.64 84.2"/>
  </g>
  <g>
    <line class="cls-10" x1="382.55" y1="71.01" x2="382.55" y2="85.08"/>
    <polygon points="379.56 84.2 382.55 89.38 385.54 84.2 379.56 84.2"/>
  </g>
  <g>
    <line class="cls-10" x1="262.1" y1="96.71" x2="270.16" y2="96.71"/>
    <polygon points="269.29 99.7 274.47 96.71 269.29 93.72 269.29 99.7"/>
  </g>
  <g>
    <line class="cls-10" x1="247.8" y1="131.73" x2="260.49" y2="131.73"/>
    <polygon points="259.62 134.73 264.8 131.73 259.62 128.74 259.62 134.73"/>
  </g>
  <g>
    <line class="cls-10" x1="247.8" y1="181.33" x2="260.35" y2="181.33"/>
    <polygon points="259.48 184.33 264.66 181.33 259.48 178.34 259.48 184.33"/>
  </g>
  <g>
    <line class="cls-10" x1="247.8" y1="159.53" x2="260.49" y2="159.53"/>
    <polygon points="259.62 162.53 264.8 159.53 259.62 156.54 259.62 162.53"/>
  </g>
  <g>
    <line class="cls-10" x1="382.55" y1="54.03" x2="382.55" y2="35.55"/>
    <polygon points="385.54 53.15 382.55 58.33 379.56 53.15 385.54 53.15"/>
  </g>
  <g>
    <line class="cls-10" x1="234.76" y1="22.66" x2="234.76" y2="25.56"/>
    <polygon points="231.76 24.68 234.76 29.86 237.75 24.68 231.76 24.68"/>
  </g>
  <g>
    <polyline class="cls-10" points="79.2 75.8 79.2 37.53 64.8 37.53"/>
    <polygon points="82.19 74.93 79.2 80.11 76.21 74.93 82.19 74.93"/>
  </g>
  <g>
    <line class="cls-10" x1="301.4" y1="21.76" x2="301.4" y2="25.56"/>
    <polygon points="298.41 24.68 301.4 29.86 304.39 24.68 298.41 24.68"/>
  </g>
  <g>
    <line class="cls-10" x1="168.65" y1="113.24" x2="179.51" y2="113.24"/>
    <polygon points="178.63 116.23 183.81 113.24 178.63 110.25 178.63 116.23"/>
  </g>
  <g>
    <polyline class="cls-10" points="168.6 174.93 168.6 131.73 185.89 131.73"/>
    <polygon points="185.02 134.73 190.2 131.73 185.02 128.74 185.02 134.73"/>
  </g>
  <g>
    <line class="cls-10" x1="168.6" y1="159.53" x2="185.89" y2="159.53"/>
    <polygon points="185.02 162.53 190.2 159.53 185.02 156.54 185.02 162.53"/>
  </g>
  <g>
    <polyline class="cls-10" points="64.8 59.13 72 59.13 72 75.8"/>
    <polygon points="69.01 74.93 72 80.11 74.99 74.93 69.01 74.93"/>
  </g>
  <g>
    <line class="cls-10" x1="46.8" y1="95.53" x2="46.8" y2="105.63"/>
    <polygon points="43.81 104.75 46.8 109.93 49.79 104.75 43.81 104.75"/>
  </g>
  <g>
    <polyline class="cls-10" points="416.54 96.72 425.38 96.72 425.38 96.7 425.49 96.7"/>
    <polygon points="424.63 99.71 429.8 96.7 424.61 93.73 424.63 99.71"/>
  </g>
  <polyline class="cls-10" points="419.26 96.72 419.26 137.83 406.2 137.83"/>
  <polyline class="cls-10" points="150.56 78.21 150.56 78.21 317.63 78.21"/>
  <rect class="cls-8" x="100.8" y="113.13" width="50.4" height="21.6" rx="3.39" ry="3.39"/>
  <text class="cls-29" transform="translate(101 102.23)"><tspan x="0" y="0">e.g. 2 months</tspan></text>
  <g>
    <path d="M104.14,120.66v-.16h.22c.25,0,.43-.08.54-.24.06-.1.1-.31.1-.65v-3.85c0-.37-.04-.6-.12-.7-.11-.13-.28-.19-.51-.19h-.22v-.16h2.43c.89,0,1.57.1,2.03.3.46.2.84.54,1.12,1.01s.42,1.02.42,1.63c0,.83-.25,1.52-.76,2.08-.57.62-1.43.93-2.58.93h-2.66ZM105.84,120.23c.37.08.68.12.94.12.68,0,1.24-.24,1.69-.72s.67-1.12.67-1.94-.22-1.47-.67-1.95-1.02-.71-1.73-.71c-.26,0-.56.04-.9.13v5.07Z"/>
    <path d="M111.44,118.15c0,.6.14,1.07.44,1.41s.64.51,1.03.51c.26,0,.49-.07.69-.22.19-.15.36-.39.49-.75l.14.09c-.06.4-.24.77-.54,1.1-.3.33-.67.49-1.11.49-.48,0-.9-.19-1.24-.56-.34-.38-.52-.88-.52-1.52,0-.69.18-1.23.53-1.61s.8-.58,1.33-.58c.45,0,.82.15,1.11.45s.44.69.44,1.19h-2.78ZM111.44,117.9h1.86c-.01-.26-.05-.44-.09-.54-.07-.16-.18-.29-.33-.39-.14-.09-.3-.14-.45-.14-.24,0-.46.09-.65.28-.19.19-.3.45-.34.79Z"/>
    <path d="M114.47,117.04l1.24-.5h.17v.94c.21-.35.42-.6.63-.74s.43-.21.66-.21c.4,0,.74.16,1.01.47.33.39.5.89.5,1.51,0,.69-.2,1.27-.6,1.72-.33.37-.74.56-1.24.56-.22,0-.4-.03-.56-.09-.12-.04-.25-.13-.4-.26v1.23c0,.28.02.45.05.53.03.07.09.13.18.18.08.04.23.07.45.07v.16h-2.11v-.16h.11c.16,0,.3-.03.41-.09.06-.03.1-.08.13-.16.03-.07.05-.25.05-.55v-3.81c0-.26-.01-.43-.04-.5s-.06-.12-.11-.16-.12-.05-.21-.05c-.07,0-.16.02-.27.06l-.05-.14ZM115.88,117.73v1.5c0,.33.01.54.04.64.04.17.14.32.3.45.16.13.36.19.6.19.29,0,.53-.11.71-.34.24-.3.36-.72.36-1.26,0-.62-.13-1.09-.4-1.42-.19-.23-.41-.34-.67-.34-.14,0-.28.04-.42.11-.11.05-.28.21-.52.47Z"/>
    <path d="M120.65,114.41v5.34c0,.25.02.42.06.5.04.08.09.14.17.19s.22.06.43.06v.16h-1.97v-.16c.18,0,.31-.02.38-.06s.12-.1.16-.19.06-.26.06-.51v-3.66c0-.45-.01-.73-.03-.84-.02-.1-.05-.17-.1-.21-.05-.04-.1-.06-.17-.06-.08,0-.17.02-.29.07l-.07-.15,1.2-.49h.2Z"/>
    <path d="M123.73,116.52c.61,0,1.1.23,1.47.69.31.4.47.85.47,1.36,0,.36-.09.73-.26,1.09s-.41.65-.71.83c-.3.19-.64.28-1.01.28-.61,0-1.09-.24-1.45-.73-.3-.41-.45-.86-.45-1.37,0-.37.09-.74.27-1.1.18-.36.42-.63.72-.81.3-.17.62-.26.95-.26ZM123.59,116.8c-.16,0-.31.05-.47.14-.16.09-.28.25-.38.49s-.15.53-.15.89c0,.59.12,1.09.35,1.52.23.42.54.64.92.64.28,0,.52-.12.7-.35s.28-.64.28-1.21c0-.71-.15-1.28-.46-1.69-.21-.28-.47-.42-.8-.42Z"/>
    <path d="M126.03,116.64h1.88v.16h-.09c-.13,0-.23.03-.3.09-.07.06-.1.13-.1.21,0,.11.05.27.15.47l.98,2.03.9-2.22c.05-.12.07-.24.07-.36,0-.05-.01-.09-.03-.12-.02-.03-.06-.06-.11-.08s-.14-.03-.26-.03v-.16h1.31v.16c-.11.01-.19.04-.25.07s-.12.1-.19.2c-.03.04-.08.15-.15.34l-1.64,4.02c-.16.39-.37.68-.62.88s-.5.3-.74.3c-.17,0-.31-.05-.43-.15s-.17-.21-.17-.34.04-.22.12-.3c.08-.07.19-.11.33-.11.1,0,.23.03.4.1.12.04.19.07.22.07.09,0,.18-.04.29-.14.1-.09.21-.27.31-.53l.29-.7-1.45-3.04c-.04-.09-.11-.2-.21-.34-.07-.1-.13-.17-.18-.21-.07-.05-.18-.09-.33-.12v-.16Z"/>
    <path d="M131.96,117.37c.29-.29.47-.46.52-.51.13-.11.27-.2.43-.26s.3-.09.45-.09c.25,0,.47.07.65.22s.3.36.36.64c.3-.35.56-.58.76-.69.21-.11.42-.16.64-.16s.4.06.57.16c.17.11.3.29.39.54.06.17.1.44.1.8v1.73c0,.25.02.42.06.52.03.06.08.12.16.16.08.05.21.07.39.07v.16h-1.99v-.16h.08c.17,0,.31-.03.4-.1.07-.05.12-.12.15-.22.01-.05.02-.19.02-.43v-1.73c0-.33-.04-.56-.12-.69-.11-.19-.3-.28-.55-.28-.16,0-.31.04-.47.12-.16.08-.35.22-.57.43v.05s0,.19,0,.19v1.92c0,.28.02.45.05.51.03.07.09.12.17.17.08.05.23.07.44.07v.16h-2.03v-.16c.22,0,.38-.03.46-.08.08-.05.14-.13.17-.24.01-.05.02-.19.02-.44v-1.73c0-.33-.05-.56-.15-.71-.13-.19-.31-.28-.54-.28-.16,0-.31.04-.47.13-.24.13-.43.27-.56.44v2.16c0,.26.02.44.05.51s.09.14.16.18c.07.04.22.06.44.06v.16h-1.99v-.16c.18,0,.31-.02.39-.06.07-.04.13-.1.17-.19s.06-.25.06-.5v-1.54c0-.44-.01-.73-.04-.86-.02-.1-.05-.16-.1-.2-.04-.04-.1-.05-.18-.05-.08,0-.18.02-.29.07l-.07-.16,1.21-.49h.19v.86Z"/>
    <path d="M138.44,118.15c0,.6.14,1.07.44,1.41s.64.51,1.03.51c.26,0,.49-.07.69-.22.19-.15.36-.39.49-.75l.14.09c-.06.4-.24.77-.54,1.1-.3.33-.67.49-1.11.49-.48,0-.9-.19-1.24-.56-.34-.38-.52-.88-.52-1.52,0-.69.18-1.23.53-1.61s.8-.58,1.33-.58c.45,0,.82.15,1.11.45s.44.69.44,1.19h-2.78ZM138.44,117.9h1.86c-.01-.26-.05-.44-.09-.54-.07-.16-.18-.29-.33-.39-.14-.09-.3-.14-.45-.14-.24,0-.46.09-.65.28-.19.19-.3.45-.34.79Z"/>
    <path d="M142.93,117.37c.47-.57.92-.85,1.35-.85.22,0,.41.06.57.16.16.11.28.29.38.54.06.18.1.45.1.81v1.72c0,.25.02.43.06.52.03.07.08.13.16.17s.2.06.4.06v.16h-1.99v-.16h.08c.19,0,.32-.03.39-.09.08-.06.13-.14.16-.25.01-.04.02-.18.02-.41v-1.65c0-.37-.05-.63-.14-.8-.1-.17-.26-.25-.48-.25-.35,0-.7.19-1.04.57v2.12c0,.27.02.44.05.51.04.08.1.15.17.19.07.04.22.06.44.06v.16h-1.99v-.16h.09c.21,0,.34-.05.42-.16.07-.1.11-.3.11-.6v-1.49c0-.48-.01-.78-.03-.88-.02-.11-.06-.18-.1-.22-.05-.04-.11-.06-.18-.06-.08,0-.18.02-.29.07l-.07-.16,1.21-.49h.19v.85Z"/>
    <path d="M147.43,115.31v1.32h.94v.31h-.94v2.61c0,.26.04.44.11.53.07.09.17.14.29.14.1,0,.19-.03.28-.09.09-.06.16-.15.21-.27h.17c-.1.29-.25.5-.44.65-.19.14-.38.22-.58.22-.13,0-.27-.04-.4-.11-.13-.08-.22-.18-.29-.32-.06-.14-.09-.35-.09-.64v-2.71h-.64v-.15c.16-.06.33-.17.49-.33.17-.15.32-.34.45-.55.07-.11.16-.31.28-.61h.14Z"/>
    <path d="M115.4,129.81l.15.03-.51,1.62h-4.61v-.16h.22c.25,0,.43-.08.54-.25.06-.09.09-.31.09-.65v-3.85c0-.37-.04-.6-.12-.7-.11-.13-.28-.19-.51-.19h-.22v-.16h2.7v.16c-.32,0-.54.03-.67.09-.13.06-.21.14-.26.23s-.07.32-.07.67v3.74c0,.24.02.41.07.5.04.06.09.11.16.14s.3.04.69.04h.44c.46,0,.78-.03.96-.1s.35-.19.51-.36c.15-.17.3-.44.46-.81Z"/>
    <path d="M117.98,127.32c.61,0,1.1.23,1.47.69.31.4.47.85.47,1.36,0,.36-.09.72-.26,1.09s-.41.65-.71.83c-.3.19-.64.28-1.01.28-.61,0-1.09-.24-1.45-.72-.3-.41-.45-.86-.45-1.37,0-.37.09-.74.27-1.1.18-.36.42-.63.72-.81.3-.17.62-.26.95-.26ZM117.85,127.6c-.16,0-.31.05-.47.14-.16.09-.28.25-.38.49s-.15.53-.15.89c0,.59.12,1.09.35,1.52.23.42.54.64.92.64.28,0,.52-.12.7-.35s.28-.64.28-1.21c0-.71-.15-1.28-.46-1.69-.21-.28-.47-.42-.8-.42Z"/>
    <path d="M123.94,129.93c-.11.53-.32.94-.64,1.22-.32.29-.67.43-1.05.43-.46,0-.86-.19-1.2-.58s-.51-.9-.51-1.56.19-1.15.56-1.54.83-.59,1.36-.59c.4,0,.72.1.98.31.25.21.38.43.38.65,0,.11-.04.2-.11.27-.07.07-.17.1-.3.1-.17,0-.3-.06-.39-.17-.05-.06-.08-.18-.1-.35-.02-.17-.08-.3-.18-.4-.1-.09-.24-.13-.43-.13-.29,0-.53.11-.71.33-.24.29-.36.67-.36,1.14s.12.9.35,1.27c.24.37.55.55.96.55.29,0,.54-.1.77-.29.16-.13.32-.38.47-.73l.13.06Z"/>
    <path d="M126.79,130.88c-.41.32-.67.5-.78.55-.16.07-.33.11-.51.11-.28,0-.51-.1-.69-.29-.18-.19-.27-.44-.27-.75,0-.2.04-.37.13-.51.12-.2.33-.39.63-.56.3-.18.79-.39,1.48-.64v-.16c0-.4-.06-.68-.19-.83-.13-.15-.31-.22-.56-.22-.18,0-.33.05-.44.15-.11.1-.17.21-.17.34v.25c0,.13-.03.24-.09.31-.07.07-.16.11-.27.11s-.2-.04-.27-.11c-.07-.08-.1-.18-.1-.31,0-.25.13-.48.39-.69s.62-.32,1.09-.32c.36,0,.65.06.88.18.17.09.3.23.38.43.05.13.08.38.08.77v1.37c0,.38,0,.62.02.71.01.09.04.14.07.17.03.03.07.04.12.04.05,0,.09,0,.12-.03.06-.04.18-.15.36-.32v.25c-.33.44-.64.66-.94.66-.14,0-.26-.05-.34-.15s-.13-.27-.13-.51ZM126.79,130.59v-1.53c-.44.18-.73.3-.86.37-.23.13-.4.26-.5.4s-.15.29-.15.46c0,.21.06.39.19.53.13.14.27.21.44.21.22,0,.52-.15.88-.44Z"/>
    <path d="M129.67,126.11v1.32h.94v.31h-.94v2.61c0,.26.04.44.11.53.07.09.17.14.29.14.1,0,.19-.03.28-.09.09-.06.16-.15.21-.27h.17c-.1.29-.25.5-.44.65-.19.14-.38.22-.58.22-.13,0-.27-.04-.4-.11-.13-.08-.22-.18-.29-.32-.06-.14-.09-.35-.09-.64v-2.71h-.64v-.14c.16-.06.33-.17.49-.33.17-.15.32-.34.45-.55.07-.11.16-.31.28-.61h.14Z"/>
    <path d="M132.39,127.32v3.23c0,.25.02.42.05.5.04.08.09.15.16.19.07.04.2.06.39.06v.16h-1.96v-.16c.2,0,.33-.02.4-.06s.12-.1.16-.19c.04-.09.06-.26.06-.5v-1.55c0-.44-.01-.72-.04-.85-.02-.09-.05-.16-.1-.2-.04-.04-.1-.05-.18-.05-.08,0-.18.02-.3.07l-.06-.16,1.21-.49h.19ZM132.03,125.21c.12,0,.23.04.31.13.09.09.13.19.13.31s-.04.23-.13.32-.19.13-.31.13-.23-.04-.32-.13-.13-.19-.13-.32.04-.23.13-.31c.09-.09.19-.13.32-.13Z"/>
    <path d="M135.48,127.32c.61,0,1.1.23,1.47.69.31.4.47.85.47,1.36,0,.36-.09.72-.26,1.09s-.41.65-.71.83c-.3.19-.64.28-1.01.28-.61,0-1.09-.24-1.45-.72-.3-.41-.45-.86-.45-1.37,0-.37.09-.74.27-1.1.18-.36.42-.63.72-.81.3-.17.62-.26.95-.26ZM135.34,127.6c-.16,0-.31.05-.47.14-.16.09-.28.25-.38.49s-.15.53-.15.89c0,.59.12,1.09.35,1.52.23.42.54.64.92.64.28,0,.52-.12.7-.35s.28-.64.28-1.21c0-.71-.15-1.28-.46-1.69-.21-.28-.47-.42-.8-.42Z"/>
    <path d="M139.18,128.17c.47-.57.92-.85,1.35-.85.22,0,.41.05.57.16.16.11.28.29.38.54.06.18.1.45.1.81v1.72c0,.25.02.43.06.52.03.07.08.13.16.17s.2.06.4.06v.16h-1.99v-.16h.08c.19,0,.32-.03.39-.09.08-.06.13-.14.16-.25.01-.04.02-.18.02-.41v-1.65c0-.37-.05-.63-.14-.8-.1-.17-.26-.25-.48-.25-.35,0-.7.19-1.04.57v2.12c0,.27.02.44.05.5.04.08.1.15.17.19.07.04.22.06.44.06v.16h-1.99v-.16h.09c.21,0,.34-.05.42-.16.07-.1.11-.3.11-.59v-1.49c0-.48-.01-.78-.03-.88-.02-.11-.06-.18-.1-.21-.05-.04-.11-.06-.18-.06-.08,0-.18.02-.29.07l-.07-.16,1.21-.49h.19v.85Z"/>
  </g>
  <g>
    <line class="cls-10" x1="151.2" y1="46.93" x2="161.29" y2="46.93"/>
    <polygon points="160.42 49.93 165.6 46.93 160.42 43.94 160.42 49.93"/>
  </g>
  <g>
    <line class="cls-10" x1="380.33" y1="167.18" x2="380.33" y2="162.59"/>
    <polygon points="383.32 163.47 380.33 158.29 377.34 163.47 383.32 163.47"/>
  </g>
  <text class="cls-19" transform="translate(458.74 117.83) scale(.58)"><tspan x="0" y="0">cost($)</tspan></text>
  <text class="cls-19" transform="translate(442.66 107.16) rotate(-90) scale(.58)"><tspan x="0" y="0">Carbon</tspan></text>
  <circle class="cls-5" cx="463.6" cy="98.12" r=".15"/>
  <circle class="cls-14" cx="480.2" cy="102.1" r=".15"/>
  <circle class="cls-15" cx="469.91" cy="91.93" r=".15"/>
  <circle class="cls-17" cx="453.9" cy="86.67" r=".15"/>
  <circle class="cls-16" cx="461.95" cy="104.38" r=".15"/>
  <circle class="cls-7" cx="454.74" cy="102.4" r=".15"/>
  <line class="cls-10" x1="234" y1="70.93" x2="234" y2="78.5"/>
  <line class="cls-10" x1="301.8" y1="70.86" x2="301.8" y2="78.5"/>
  <line class="cls-10" x1="261.62" y1="113.24" x2="267.7" y2="113.24"/>
  <line class="cls-10" x1="267.3" y1="96.71" x2="267.3" y2="113.24"/>
  <g>
    <line class="cls-10" x1="161.57" y1="78.21" x2="161.57" y2="195.53"/>
    <line class="cls-10" x1="161.15" y1="195.53" x2="327.99" y2="195.59"/>
    <line class="cls-10" x1="327.58" y1="196.1" x2="327.59" y2="150.53"/>
    <g>
      <line class="cls-10" x1="343.49" y1="150.82" x2="327.1" y2="150.81"/>
      <polygon points="342.62 147.83 347.8 150.82 342.62 153.81 342.62 147.83"/>
    </g>
  </g>
  <g>
    <line class="cls-10" x1="322.8" y1="130.69" x2="344.29" y2="130.69"/>
    <polygon points="343.42 133.69 348.6 130.69 343.42 127.7 343.42 133.69"/>
  </g>
  <line class="cls-2" x1="339.1" y1="153.91" x2="339.1" y2="126.93"/>
  <line class="cls-2" x1="159.3" y1="168.6" x2="163.85" y2="168.6"/>
  <g>
    <line class="cls-10" x1="339.1" y1="168.85" x2="339.1" y2="107.94"/>
    <polygon points="342.09 108.81 339.1 103.63 336.1 108.81 342.09 108.81"/>
  </g>
  <g>
    <polyline class="cls-10" points="151.2 168.6 168.6 168.6 168.6 182.73 185.89 182.73"/>
    <polygon points="185.02 185.73 190.2 182.73 185.02 179.74 185.02 185.73"/>
  </g>
  <line class="cls-2" x1="159.3" y1="118.73" x2="163.85" y2="118.73"/>
  <g>
    <polyline class="cls-10" points="178.93 96.63 168.65 96.63 168.65 118.73 151.2 118.73"/>
    <polygon points="178.06 93.64 183.24 96.63 178.06 99.63 178.06 93.64"/>
  </g>
  <rect class="cls-18" x="432.27" y="183.13" width="9.71" height="9.71"/>
</svg>