<?xml version="1.0" encoding="UTF-8"?>
<svg id="Layer_1" xmlns="http://www.w3.org/2000/svg" version="1.1" viewBox="0 0 504 199.3">
  <!-- Generator: Adobe Illustrator 30.2.1, SVG Export Plug-In . SVG Version: 2.1.1 Build 1)  -->
  <defs>
    <style>
      .st0 {
        fill: #d9c1bf;
      }

      .st1 {
        stroke: #bfecc0;
        stroke-width: 2.5px;
      }

      .st1, .st2, .st3, .st4, .st5, .st6, .st7, .st8, .st9, .st10, .st11, .st12, .st13, .st14, .st15, .st16, .st17 {
        stroke-miterlimit: 10;
      }

      .st1, .st8, .st9, .st12 {
        fill: none;
      }

      .st18 {
        font-family: Times-Roman, Times;
        font-size: 12px;
      }

      .st19 {
        font-family: TimesNewRomanPS-BoldMT, 'Times New Roman';
        font-size: 10px;
        font-weight: 700;
      }

      .st2 {
        fill: #cea1af;
      }

      .st2, .st3, .st5, .st7, .st8, .st9, .st11, .st12, .st17 {
        stroke: #000;
      }

      .st3 {
        fill: #86ae84;
      }

      .st4 {
        fill: #009245;
        stroke: #009245;
      }

      .st4, .st6, .st13, .st14, .st15, .st16 {
        stroke-width: 2px;
      }

      .st20 {
        font-size: 7.4px;
      }

      .st21, .st22, .st23 {
        font-family: TimesNewRomanPSMT, 'Times New Roman';
      }

      .st21, .st24 {
        font-size: 8px;
      }

      .st25 {
        font-size: 8.3px;
      }

      .st22, .st26 {
        font-size: 9px;
      }

      .st5 {
        fill: #a2a6cd;
      }

      .st6, .st10 {
        stroke: #231f20;
      }

      .st26, .st24 {
        font-family: TimesNewRomanPS-ItalicMT, 'Times New Roman';
        font-style: italic;
      }

      .st27, .st11 {
        fill: #feedae;
      }

      .st7 {
        fill: #fdd235;
      }

      .st28 {
        fill: #bfecc0;
      }

      .st29, .st10 {
        fill: #fff;
      }

      .st8, .st12 {
        stroke-width: .5px;
      }

      .st12 {
        stroke-dasharray: 3 3;
      }

      .st13 {
        fill: #c1272d;
        stroke: #c1272d;
      }

      .st14 {
        fill: #0072b2;
        stroke: #0072b2;
      }

      .st15 {
        fill: #f15a24;
        stroke: #f15a24;
      }

      .st16 {
        fill: #9ae09b;
        stroke: #8b5e3c;
      }

      .st17 {
        fill: #84a9c0;
      }
    </style>
  </defs>
  <rect class="st29" width="504" height="199.3"/>
  <rect class="st27" x="97.7" y="108" width="55.7" height="48.2"/>
  <polygon class="st28" points="421.2 197.6 158.5 197.6 158.5 68.5 209 68.5 209 11.6 421.2 11.6 421.2 197.6"/>
  <rect class="st27" x="96.7" y="65.3" width="55.7" height="39.9"/>
  <rect class="st10" x="429.8" y="2.2" width="72" height="118"/>
  <g>
    <line class="st9" x1="305.4" y1="102.1" x2="305.4" y2="114.2"/>
    <polygon points="302.4 113.3 305.4 118.5 308.4 113.3 302.4 113.3"/>
  </g>
  <rect class="st27" x="97.7" y="11" width="103.9" height="51.1"/>
  <rect class="st11" x="129.6" y="38.2" width="21.6" height="14.4" rx="2.4" ry="2.4"/>
  <text class="st22" transform="translate(130.4 48.9)"><tspan x="0" y="0">KWS</tspan></text>
  <g>
    <line class="st9" x1="353.2" y1="33" x2="353.2" y2="77.2"/>
    <line class="st9" x1="329.1" y1="76.7" x2="353.6" y2="76.7"/>
    <line class="st9" x1="329.6" y1="76.2" x2="329.6" y2="109.7"/>
    <line class="st9" x1="317.6" y1="109.5" x2="330.1" y2="109.5"/>
    <g>
      <line class="st9" x1="317.6" y1="114.6" x2="317.6" y2="109.1"/>
      <polygon points="320.6 113.7 317.6 118.9 314.6 113.7 320.6 113.7"/>
    </g>
  </g>
  <rect class="st7" x="99.8" y="70.2" width="50.4" height="21.6" rx="3.6" ry="3.6"/>
  <text class="st22" transform="translate(102.3 78.7)"><tspan x="0" y="0">Deployment </tspan><tspan x="12.7" y="10.8">Time</tspan></text>
  <path class="st2" d="M274.8,88.2h134.2c4,0,7.2,3.2,7.2,7.2v6.7h-134.2c-4,0-7.2-3.2-7.2-7.2v-6.7h0Z"/>
  <text class="st22" transform="translate(277.8 98.1)"><tspan x="0" y="0">List of Sensing and Compute Designs</tspan></text>
  <path class="st2" d="M266.8,56.8h60.1c4,0,7.2,3.2,7.2,7.2v5.3h-60.1c-4,0-7.2-3.2-7.2-7.2v-5.3h0Z"/>
  <g>
    <path d="M279.5,60.3h0c-.1.1-.2.2-.3.2s-.2.1-.2.3c0,0-.1.3-.2.7l-1.5,4.3h-.2l-1.2-3.4-1.2,3.4h-.1l-1.6-4.4c-.1-.3-.2-.5-.2-.6,0,0-.1-.2-.2-.2s-.2,0-.4,0h0c0-.1,2-.1,2-.1h0c0,.1,0,.1,0,.1-.1,0-.2,0-.3,0,0,0-.1.1-.1.2s0,.3.2.6l1,3,.9-2.5-.2-.4v-.4c-.2-.1-.2-.2-.3-.3,0,0,0,0-.1-.1,0,0-.1,0-.2-.1,0,0-.1,0-.2,0h0c0-.1,2.1-.1,2.1-.1h0c0,.1-.1.1-.1.1-.1,0-.3,0-.3,0,0,0-.1.1-.1.3s0,.4.2.7l1,2.9,1-2.9c.1-.3.2-.5.2-.7s0-.1,0-.2c0,0,0,0-.1-.1,0,0-.2,0-.4,0h0c0-.1,1.6-.1,1.6-.1Z"/>
    <path d="M280.7,61.9v2.9c0,.2,0,.4,0,.4,0,0,0,.1.1.2,0,0,.2,0,.3,0h0c0,.1-1.7.1-1.7.1h0c.2-.1.3-.2.4-.2,0,0,.1,0,.1-.2s0-.2,0-.4v-1.4c0-.4,0-.6,0-.8,0,0,0-.1,0-.2s0,0-.2,0-.2,0-.3,0h0c0-.1,1.1-.6,1.1-.6h.2ZM280.4,60c.1,0,.2,0,.3.1,0,0,.1.2.1.3s0,.2-.1.3c0,0-.2.1-.3.1s-.2,0-.3-.1-.1-.2-.1-.3,0-.2.1-.3c0,0,.2-.1.3-.1Z"/>
    <path d="M282.7,61.9v.8c.3-.5.6-.8.9-.8s.3,0,.4.1.1.2.1.3,0,.2-.1.3c0,0-.1.1-.2.1s-.2,0-.3-.1-.2-.1-.3-.1,0,0-.2,0c-.1.1-.2.3-.4.5v1.7c0,.2,0,.3,0,.4,0,0,0,.1.2.2s.2,0,.4,0h0c0,.1-1.8.1-1.8.1h0c.2-.1.3-.2.4-.2,0,0,.1-.1.1-.2,0,0,0-.2,0-.4v-1.4c0-.4,0-.7,0-.7,0,0,0-.1,0-.2,0,0-.1,0-.2,0s-.2,0-.3,0h0c0-.1,1.1-.6,1.1-.6h.2Z"/>
    <path d="M284.9,63.4c0,.5.1.9.4,1.2.3.3.6.5.9.5s.4,0,.6-.2c.2-.1.3-.3.4-.7h.1c0,.4-.2.8-.5,1.1-.3.3-.6.4-1,.4s-.8-.2-1.1-.5c-.3-.3-.5-.8-.5-1.3s.2-1.1.5-1.4c.3-.3.7-.5,1.2-.5s.7.1,1,.4.4.6.4,1.1h-2.5ZM284.9,63.1h1.7c0-.2,0-.4,0-.5,0-.1-.2-.3-.3-.3s-.3-.1-.4-.1c-.2,0-.4,0-.6.3-.2.2-.3.4-.3.7Z"/>
    <path d="M289.1,60v4.7c0,.2,0,.4,0,.4,0,0,0,.1.2.2,0,0,.2,0,.4,0h0c0,.1-1.8.1-1.8.1h0c.2-.1.3-.2.3-.2,0,0,.1,0,.1-.2,0,0,0-.2,0-.4v-3.2c0-.4,0-.7,0-.7,0,0,0-.2,0-.2,0,0,0,0-.2,0s-.2,0-.3,0h0c0-.1,1.1-.6,1.1-.6h.2Z"/>
    <path d="M290.7,63.4c0,.5.1.9.4,1.2.3.3.6.5.9.5s.4,0,.6-.2c.2-.1.3-.3.4-.7h.1c0,.4-.2.8-.5,1.1-.3.3-.6.4-1,.4s-.8-.2-1.1-.5c-.3-.3-.5-.8-.5-1.3s.2-1.1.5-1.4c.3-.3.7-.5,1.2-.5s.7.1,1,.4.4.6.4,1.1h-2.5ZM290.7,63.1h1.7c0-.2,0-.4,0-.5,0-.1-.2-.3-.3-.3s-.3-.1-.4-.1c-.2,0-.4,0-.6.3-.2.2-.3.4-.3.7Z"/>
    <path d="M296,61.9v1.2h-.1c0-.4-.2-.6-.4-.8-.2-.1-.4-.2-.6-.2s-.3,0-.4.1c-.1,0-.2.2-.2.3s0,.3.1.4c0,.1.2.2.5.3l.6.3c.5.3.8.6.8,1s-.1.6-.4.8-.5.3-.8.3-.5,0-.8-.1c0,0-.2,0-.2,0s-.1,0-.1.1h-.1v-1.3h.1c0,.4.2.6.4.8.2.2.4.3.7.3s.3,0,.4-.2.2-.2.2-.4,0-.3-.2-.5c-.1-.1-.4-.3-.8-.5-.4-.2-.6-.4-.7-.5-.1-.1-.2-.3-.2-.6s.1-.5.3-.7c.2-.2.5-.3.8-.3s.3,0,.5,0c.1,0,.2,0,.3,0s0,0,0,0,0,0,0-.1h.1Z"/>
    <path d="M299.1,61.9v1.2h-.1c0-.4-.2-.6-.4-.8-.2-.1-.4-.2-.6-.2s-.3,0-.4.1c-.1,0-.2.2-.2.3s0,.3.1.4c0,.1.2.2.5.3l.6.3c.5.3.8.6.8,1s-.1.6-.4.8-.5.3-.8.3-.5,0-.8-.1c0,0-.2,0-.2,0s-.1,0-.1.1h-.1v-1.3h.1c0,.4.2.6.4.8.2.2.4.3.7.3s.3,0,.4-.2.2-.2.2-.4,0-.3-.2-.5c-.1-.1-.4-.3-.8-.5-.4-.2-.6-.4-.7-.5-.1-.1-.2-.3-.2-.6s.1-.5.3-.7c.2-.2.5-.3.8-.3s.3,0,.5,0c.1,0,.2,0,.3,0s0,0,0,0,0,0,0-.1h.1Z"/>
    <path d="M304.9,65.6l-2-4.5v3.5c0,.3,0,.5.1.6,0,.1.2.2.5.2h.2c0,.1-1.8.1-1.8.1h0c0-.1.2-.1.2-.1.2,0,.4,0,.5-.2,0,0,0-.3,0-.6v-3.5c0-.2,0-.4,0-.5,0,0-.1-.1-.2-.2s-.3,0-.5,0h0c0-.1,1.5-.1,1.5-.1l1.9,4.1,1.9-4.1h1.5c0,.1-.2.1-.2.1-.2,0-.4,0-.5.2,0,0,0,.3,0,.6v3.5c0,.3,0,.5.1.6,0,.1.2.2.5.2h.2c0,.1-2.2.1-2.2.1h0c0-.1.2-.1.2-.1.2,0,.4,0,.5-.2,0,0,0-.3,0-.6v-3.5l-2,4.5h-.1Z"/>
    <path d="M310.7,61.9c.5,0,1,.2,1.3.6.3.4.4.8.4,1.2s0,.6-.2,1c-.2.3-.4.6-.6.7s-.6.2-.9.2c-.5,0-1-.2-1.3-.6-.3-.4-.4-.8-.4-1.2s0-.7.2-1c.2-.3.4-.6.6-.7s.5-.2.8-.2ZM310.6,62.2c-.1,0-.3,0-.4.1-.1,0-.3.2-.3.4s-.1.5-.1.8c0,.5.1,1,.3,1.3s.5.6.8.6.5-.1.6-.3.2-.6.2-1.1-.1-1.1-.4-1.5c-.2-.2-.4-.4-.7-.4Z"/>
    <path d="M315.5,65.2c-.2.2-.3.3-.5.4-.2,0-.3.1-.5.1-.4,0-.7-.2-1-.5-.3-.3-.4-.7-.4-1.3s.2-1,.5-1.4c.3-.4.7-.6,1.2-.6s.6.1.8.3v-.7c0-.4,0-.7,0-.8s0-.2,0-.2c0,0,0,0-.2,0s-.2,0-.3,0h0c0-.1,1.1-.6,1.1-.6h.2v4.1c0,.4,0,.7,0,.8s0,.2,0,.2,0,0,.2,0,.2,0,.3,0h0c0,.1-1.1.6-1.1.6h-.2v-.5ZM315.5,64.9v-1.8c0-.2,0-.3-.1-.5s-.2-.3-.3-.3-.3-.1-.4-.1c-.2,0-.4.1-.6.3-.2.3-.4.7-.4,1.2s.1.9.3,1.2c.2.3.5.4.8.4s.5-.1.7-.4Z"/>
    <path d="M320.1,62v2.2c0,.4,0,.7,0,.8s0,.2,0,.2,0,0,.2,0,.2,0,.3,0h0c0,.1-1.1.6-1.1.6h-.2v-.8c-.3.3-.5.5-.7.6-.2,0-.3.1-.5.1s-.4,0-.5-.2c-.1-.1-.2-.3-.3-.4,0-.2,0-.4,0-.8v-1.6c0-.2,0-.3,0-.4,0,0,0-.1-.2-.2,0,0-.2,0-.4,0h0c0-.1,1.3-.1,1.3-.1v2.4c0,.3,0,.6.2.7.1.1.3.2.4.2s.2,0,.4-.1c.1,0,.3-.2.5-.4v-2c0-.2,0-.3-.1-.4s-.2-.1-.5-.1h0c0-.1,1.2-.1,1.2-.1Z"/>
    <path d="M322.2,60v4.7c0,.2,0,.4,0,.4,0,0,0,.1.2.2,0,0,.2,0,.4,0h0c0,.1-1.8.1-1.8.1h0c.2-.1.3-.2.3-.2,0,0,.1,0,.1-.2,0,0,0-.2,0-.4v-3.2c0-.4,0-.7,0-.7,0,0,0-.2,0-.2,0,0,0,0-.2,0s-.2,0-.3,0h0c0-.1,1.1-.6,1.1-.6h.2Z"/>
    <path d="M323.8,63.4c0,.5.1.9.4,1.2.3.3.6.5.9.5s.4,0,.6-.2c.2-.1.3-.3.4-.7h.1c0,.4-.2.8-.5,1.1-.3.3-.6.4-1,.4s-.8-.2-1.1-.5c-.3-.3-.5-.8-.5-1.3s.2-1.1.5-1.4c.3-.3.7-.5,1.2-.5s.7.1,1,.4.4.6.4,1.1h-2.5ZM323.8,63.1h1.7c0-.2,0-.4,0-.5,0-.1-.2-.3-.3-.3s-.3-.1-.4-.1c-.2,0-.4,0-.6.3-.2.2-.3.4-.3.7Z"/>
    <path d="M329.1,61.9v1.2h-.1c0-.4-.2-.6-.4-.8-.2-.1-.4-.2-.6-.2s-.3,0-.4.1c-.1,0-.2.2-.2.3s0,.3.1.4c0,.1.2.2.5.3l.6.3c.5.3.8.6.8,1s-.1.6-.4.8-.5.3-.8.3-.5,0-.8-.1c0,0-.2,0-.2,0s-.1,0-.1.1h-.1v-1.3h.1c0,.4.2.6.4.8.2.2.4.3.7.3s.3,0,.4-.2.2-.2.2-.4,0-.3-.2-.5c-.1-.1-.4-.3-.8-.5-.4-.2-.6-.4-.7-.5-.1-.1-.2-.3-.2-.6s.1-.5.3-.7c.2-.2.5-.3.8-.3s.3,0,.5,0c.1,0,.2,0,.3,0s0,0,0,0,0,0,0-.1h.1Z"/>
  </g>
  <polygon class="st5" points="259.1 117 181.7 117 187.5 106.2 264.4 106.2 259.1 117"/>
  <polygon class="st5" points="440.3 176.5 430.9 176.5 433.3 167.1 443 167.1 440.3 176.5"/>
  <text class="st23" transform="translate(193.1 113.8)"><tspan class="st25" x="0" y="0">Event </tspan><tspan class="st20" x="21.4" y="0">Arrival </tspan><tspan class="st25" x="44.5" y="0">Trace</tspan></text>
  <polygon class="st5" points="259.2 100.6 180.8 100.6 186.8 89.8 264.6 89.8 259.2 100.6"/>
  <text class="st21" transform="translate(205.3 97.9)"><tspan x="0" y="0">Solar Trace</tspan></text>
  <path class="st2" d="M212.4,56.8h36c4,0,7.2,3.2,7.2,7.2v5.4h-36c-4,0-7.2-3.2-7.2-7.2v-5.4h0Z"/>
  <text class="st21" transform="translate(221.7 65.1)"><tspan x="0" y="0">Sensors </tspan></text>
  <rect class="st11" x="165.6" y="31" width="28.8" height="21.6" rx="1.8" ry="1.8"/>
  <text class="st22" transform="translate(171 39.7)"><tspan x="0" y="0">Send </tspan><tspan x="-2.5" y="10.8">Result</tspan></text>
  <path class="st2" d="M359,56.8h36c4,0,7.2,3.2,7.2,7.2v5.3h-36c-4,0-7.2-3.2-7.2-7.2v-5.3h0Z"/>
  <path class="st2" d="M432.3,139.4h5.8c2,0,3.6,1.6,3.6,3.6v5.8h-5.8c-2,0-3.6-1.6-3.6-3.6v-5.8h0Z"/>
  <g>
    <path d="M365.1,62.5v1.5c0,.3,0,.5.1.6,0,.1.2.2.4.2h.2c0,.1-2.3.1-2.3.1h0c0-.1.2-.1.2-.1.2,0,.4,0,.5-.2,0,0,0-.3,0-.6v-3.4c0-.3,0-.5-.1-.6-.1-.1-.3-.2-.5-.2h-.2c0-.1,1.9-.1,1.9-.1.5,0,.8,0,1.1.1s.5.3.7.5.3.5.3.8-.1.8-.4,1.1-.7.4-1.2.4-.3,0-.4,0-.3,0-.5,0ZM365.1,62.3c.1,0,.3,0,.4,0,.1,0,.2,0,.3,0,.3,0,.5-.1.7-.3.2-.2.3-.5.3-.8s0-.4-.1-.6-.2-.3-.4-.4-.4-.1-.6-.1-.3,0-.5,0v2.2Z"/>
    <path d="M369.2,61.3v.8c.3-.5.6-.8.9-.8s.3,0,.4.1.1.2.1.3,0,.2-.1.3c0,0-.1.1-.2.1s-.2,0-.3-.1-.2-.1-.3-.1,0,0-.2,0c-.1.1-.2.3-.4.5v1.7c0,.2,0,.3,0,.4,0,0,0,.1.2.2s.2,0,.4,0h0c0,.1-1.8.1-1.8.1h0c.2-.1.3-.2.4-.2,0,0,.1-.1.1-.2,0,0,0-.2,0-.4v-1.4c0-.4,0-.7,0-.7,0,0,0-.1,0-.2,0,0-.1,0-.2,0s-.2,0-.3,0h0c0-.1,1.1-.6,1.1-.6h.2Z"/>
    <path d="M372.6,61.3c.5,0,1,.2,1.3.6.3.4.4.8.4,1.2s0,.6-.2,1c-.2.3-.4.6-.6.7s-.6.2-.9.2c-.5,0-1-.2-1.3-.6-.3-.4-.4-.8-.4-1.2s0-.7.2-1c.2-.3.4-.6.6-.7s.5-.2.8-.2ZM372.5,61.5c-.1,0-.3,0-.4.1-.1,0-.3.2-.3.4s-.1.5-.1.8c0,.5.1,1,.3,1.3s.5.6.8.6.5-.1.6-.3.2-.6.2-1.1-.1-1.1-.4-1.5c-.2-.2-.4-.4-.7-.4Z"/>
    <path d="M377.9,63.6c0,.5-.3.8-.6,1.1s-.6.4-.9.4-.8-.2-1.1-.5c-.3-.3-.5-.8-.5-1.4s.2-1,.5-1.4c.3-.4.7-.5,1.2-.5s.6,0,.9.3.3.4.3.6,0,.2,0,.2c0,0-.2,0-.3,0s-.3,0-.3-.1c0,0,0-.2,0-.3,0-.2,0-.3-.2-.4,0,0-.2-.1-.4-.1-.3,0-.5,0-.6.3-.2.3-.3.6-.3,1s.1.8.3,1.1c.2.3.5.5.8.5s.5,0,.7-.3c.1-.1.3-.3.4-.7h.1Z"/>
    <path d="M379,62.7c0,.5.1.9.4,1.2.3.3.6.5.9.5s.4,0,.6-.2c.2-.1.3-.3.4-.7h.1c0,.4-.2.8-.5,1.1-.3.3-.6.4-1,.4s-.8-.2-1.1-.5c-.3-.3-.5-.8-.5-1.3s.2-1.1.5-1.4c.3-.3.7-.5,1.2-.5s.7.1,1,.4.4.6.4,1.1h-2.5ZM379,62.5h1.7c0-.2,0-.4,0-.5,0-.1-.2-.3-.3-.3s-.3-.1-.4-.1c-.2,0-.4,0-.6.3-.2.2-.3.4-.3.7Z"/>
    <path d="M384.3,61.3v1.2h-.1c0-.4-.2-.6-.4-.8-.2-.1-.4-.2-.6-.2s-.3,0-.4.1c-.1,0-.2.2-.2.3s0,.3.1.4c0,.1.2.2.5.3l.6.3c.5.3.8.6.8,1s-.1.6-.4.8-.5.3-.8.3-.5,0-.8-.1c0,0-.2,0-.2,0s-.1,0-.1.1h-.1v-1.3h.1c0,.4.2.6.4.8.2.2.4.3.7.3s.3,0,.4-.2.2-.2.2-.4,0-.3-.2-.5c-.1-.1-.4-.3-.8-.5-.4-.2-.6-.4-.7-.5-.1-.1-.2-.3-.2-.6s.1-.5.3-.7c.2-.2.5-.3.8-.3s.3,0,.5,0c.1,0,.2,0,.3,0s0,0,0,0,0,0,0-.1h.1Z"/>
    <path d="M387.4,61.3v1.2h-.1c0-.4-.2-.6-.4-.8-.2-.1-.4-.2-.6-.2s-.3,0-.4.1c-.1,0-.2.2-.2.3s0,.3.1.4c0,.1.2.2.5.3l.6.3c.5.3.8.6.8,1s-.1.6-.4.8-.5.3-.8.3-.5,0-.8-.1c0,0-.2,0-.2,0s-.1,0-.1.1h-.1v-1.3h.1c0,.4.2.6.4.8.2.2.4.3.7.3s.3,0,.4-.2.2-.2.2-.4,0-.3-.2-.5c-.1-.1-.4-.3-.8-.5-.4-.2-.6-.4-.7-.5-.1-.1-.2-.3-.2-.6s.1-.5.3-.7c.2-.2.5-.3.8-.3s.3,0,.5,0c.1,0,.2,0,.3,0s0,0,0,0,0,0,0-.1h.1Z"/>
    <path d="M389.9,61.3c.5,0,1,.2,1.3.6.3.4.4.8.4,1.2s0,.6-.2,1c-.2.3-.4.6-.6.7s-.6.2-.9.2c-.5,0-1-.2-1.3-.6-.3-.4-.4-.8-.4-1.2s0-.7.2-1c.2-.3.4-.6.6-.7s.5-.2.8-.2ZM389.8,61.5c-.1,0-.3,0-.4.1-.1,0-.3.2-.3.4s-.1.5-.1.8c0,.5.1,1,.3,1.3s.5.6.8.6.5-.1.6-.3.2-.6.2-1.1-.1-1.1-.4-1.5c-.2-.2-.4-.4-.7-.4Z"/>
    <path d="M393.2,61.3v.8c.3-.5.6-.8.9-.8s.3,0,.4.1.1.2.1.3,0,.2-.1.3c0,0-.1.1-.2.1s-.2,0-.3-.1-.2-.1-.3-.1,0,0-.2,0c-.1.1-.2.3-.4.5v1.7c0,.2,0,.3,0,.4,0,0,0,.1.2.2s.2,0,.4,0h0c0,.1-1.8.1-1.8.1h0c.2-.1.3-.2.4-.2,0,0,.1-.1.1-.2,0,0,0-.2,0-.4v-1.4c0-.4,0-.7,0-.7,0,0,0-.1,0-.2,0,0-.1,0-.2,0s-.2,0-.3,0h0c0-.1,1.1-.6,1.1-.6h.2Z"/>
    <path d="M397.2,61.3v1.2h-.1c0-.4-.2-.6-.4-.8-.2-.1-.4-.2-.6-.2s-.3,0-.4.1c-.1,0-.2.2-.2.3s0,.3.1.4c0,.1.2.2.5.3l.6.3c.5.3.8.6.8,1s-.1.6-.4.8-.5.3-.8.3-.5,0-.8-.1c0,0-.2,0-.2,0s-.1,0-.1.1h-.1v-1.3h.1c0,.4.2.6.4.8.2.2.4.3.7.3s.3,0,.4-.2.2-.2.2-.4,0-.3-.2-.5c-.1-.1-.4-.3-.8-.5-.4-.2-.6-.4-.7-.5-.1-.1-.2-.3-.2-.6s.1-.5.3-.7c.2-.2.5-.3.8-.3s.3,0,.5,0c.1,0,.2,0,.3,0s0,0,0,0,0,0,0-.1h.1Z"/>
  </g>
  <rect class="st7" x="7.2" y="50.4" width="57.6" height="14.4" rx="3.5" ry="3.5"/>
  <text class="st22" transform="translate(15.1 60.6)"><tspan x="0" y="0">ML models</tspan></text>
  <rect class="st7" x="7.2" y="28.8" width="57.6" height="14.4" rx="3.7" ry="3.7"/>
  <rect class="st7" x="432.2" y="152.8" width="9.9" height="9.9" rx="3.2" ry="3.2"/>
  <text class="st22" transform="translate(16.8 38.7)"><tspan x="0" y="0">Processors</tspan></text>
  <path class="st7" d="M118.8,16.1h43.4c1.9,0,3.4,1.5,3.4,3.4v4.2c0,2-1.6,3.6-3.6,3.6h-43.2c-2,0-3.6-1.6-3.6-3.6v-4c0-2,1.6-3.6,3.6-3.6Z"/>
  <text class="st22" transform="translate(122.3 24.8) scale(1 1)"><tspan x="0" y="0">Workflow</tspan></text>
  <rect class="st17" x="7.2" y="79.2" width="79.2" height="14.8"/>
  <text class="st22" transform="translate(17.5 89.5)"><tspan x="0" y="0">Characterization</tspan></text>
  <g>
    <path class="st3" d="M234,28.8c-11.9,0-21.6.9-21.6,2.1s0,0,0,0v15.5c0,1.2,9.7,2.1,21.6,2.1s21.6-.9,21.6-2.1v-15.5c0-1.2-9.7-2.1-21.6-2.1Z"/>
    <ellipse class="st3" cx="234" cy="30.9" rx="21.6" ry="2.1"/>
  </g>
  <text class="st21" transform="translate(221.6 43.2)"><tspan x="0" y="0">Sensors</tspan></text>
  <g>
    <path class="st3" d="M219,123c-15.9,0-28.8,1.3-28.8,2.8s0,0,0,0v14.1c0,1.6,12.9,2.8,28.8,2.8s28.8-1.3,28.8-2.8v-14.1c0-1.6-12.9-2.8-28.8-2.8Z"/>
    <ellipse class="st3" cx="219" cy="125.8" rx="28.8" ry="2.8"/>
  </g>
  <text class="st22" transform="translate(198.4 137.8)"><tspan x="0" y="0">Solar Panel </tspan></text>
  <g>
    <path class="st3" d="M219,146.2c-15.9,0-28.8,1.3-28.8,2.8s0,0,0,0v14.2c0,1.6,12.9,2.8,28.8,2.8s28.8-1.3,28.8-2.8v-14.2c0-1.6-12.9-2.8-28.8-2.8Z"/>
    <ellipse class="st3" cx="219" cy="149" rx="28.8" ry="2.8"/>
  </g>
  <text class="st22" transform="translate(201.5 160.8)"><tspan x="0" y="0">Capacitor </tspan></text>
  <g>
    <path class="st3" d="M219,169.4c-15.9,0-28.8,1.3-28.8,2.9s0,0,0,0v14.4c0,1.6,12.9,2.9,28.8,2.9s28.8-1.3,28.8-2.9v-14.4c0-1.6-12.9-2.9-28.8-2.9Z"/>
    <ellipse class="st3" cx="219" cy="172.3" rx="28.8" ry="2.9"/>
  </g>
  <text class="st22" transform="translate(205.8 184.3)"><tspan x="0" y="0">Battery</tspan></text>
  <g>
    <path class="st3" d="M300.4,28.8c-18.6,0-33.6.9-33.6,2.1s0,0,0,0v15.5c0,1.2,15.1,2.1,33.6,2.1s33.6-.9,33.6-2.1v-15.5c0-1.2-15.1-2.1-33.7-2.1Z"/>
    <ellipse class="st3" cx="300.5" cy="30.9" rx="33.6" ry="2.1"/>
  </g>
  <text class="st21" transform="translate(272.7 43.2)"><tspan x="0" y="0">Wireless Modules</tspan></text>
  <g>
    <path d="M32.1,4.9c1.1,0,1.9.3,2.6.9s1,1.5,1,2.5-.2,1.6-.7,2.2c-.7.8-1.6,1.3-2.8,1.3s-2.1-.4-2.8-1.2c-.5-.6-.8-1.4-.8-2.3s.3-1.8,1-2.5,1.5-1,2.5-.9ZM32.1,5.2c-.6,0-1.1.3-1.4.9-.3.5-.4,1.2-.4,2.2s.2,2,.6,2.5c.3.4.7.6,1.2.6s.6,0,.8-.2c.3-.2.5-.5.7-1s.2-1.1.2-1.8,0-1.5-.2-2-.4-.7-.6-.9-.5-.3-.9-.3Z"/>
    <path d="M38.3,7.5v3.2c0,.3,0,.5,0,.6.1.1.3.2.6.2v.2h-2.7v-.2c.2,0,.4,0,.4,0s.1-.1.2-.2,0-.2,0-.5v-3.2h-.7v-.5h.7v-.6c0-.5.2-.9.5-1.2s.8-.5,1.4-.5.7,0,.9.2.3.3.3.5,0,.3-.2.4-.3.2-.5.2-.3,0-.4-.1-.1-.2-.1-.3,0,0,0-.2c0,0,0-.1,0-.2s0-.1,0-.2c0,0-.1,0-.2,0s-.2,0-.2.1,0,.2,0,.4v.9s0,.6,0,.6h.7v.5h-.7Z"/>
    <path d="M41.6,7.5v3.2c0,.3,0,.5,0,.6.1.1.3.2.6.2v.2h-2.7v-.2c.2,0,.4,0,.4,0s.1-.1.2-.2,0-.2,0-.5v-3.2h-.7v-.5h.7v-.6c0-.5.2-.9.5-1.2s.8-.5,1.4-.5.7,0,.9.2.3.3.3.5,0,.3-.2.4-.3.2-.5.2-.3,0-.4-.1-.1-.2-.1-.3,0,0,0-.2c0,0,0-.1,0-.2s0-.1,0-.2c0,0-.1,0-.2,0s-.2,0-.2.1,0,.2,0,.4v.9s0,.6,0,.6h.7v.5h-.7Z"/>
    <path d="M45.7,9.8h-2.8v-1h2.8v1Z"/>
    <path d="M52.3,9.3l-.2,2.3h-5.9v-.2h.2c.2,0,.3,0,.5-.1,0,0,.1-.1.2-.2,0,0,0-.3,0-.6v-4.4c0-.3,0-.6,0-.6s-.1-.2-.2-.2-.3,0-.4,0h-.2v-.2h3.5v.2h-.3c-.2,0-.3,0-.5.1,0,0-.2.1-.2.2,0,0,0,.3,0,.6v4.2c0,.3,0,.6,0,.6s.1.2.2.2c0,0,.3,0,.6,0h.6c.4,0,.6,0,.9-.2s.4-.3.6-.6.3-.7.5-1.2h.2Z"/>
    <path d="M54.7,7.1v3.6c0,.3,0,.5.1.6s.2.1.4.2v.2h-2.5v-.2c.2,0,.4,0,.4-.2,0,0,0-.3,0-.6v-2.7c0-.3,0-.5-.1-.6s-.2-.1-.4-.2v-.2h1.9ZM54.1,4.8c.2,0,.4,0,.5.2s.2.3.2.5,0,.4-.2.5-.3.2-.5.2-.4,0-.5-.2-.2-.3-.2-.5,0-.4.2-.5.3-.2.5-.2Z"/>
    <path d="M57.6,7.1v.6c.2-.3.5-.4.7-.6s.4-.2.7-.2.5,0,.7.2.3.4.4.6c0,.2,0,.5,0,1.1v1.8c0,.4,0,.6,0,.7s.2.1.4.2v.2h-2.3v-.2c.2,0,.3,0,.4-.2,0,0,0-.3,0-.6v-2c0-.4,0-.6,0-.7s0-.2-.1-.2-.1,0-.2,0c-.3,0-.5.2-.8.6v2.4c0,.3,0,.6,0,.6s.2.1.4.2v.2h-2.3v-.2c.2,0,.3,0,.4-.2,0,0,0-.3,0-.6v-2.6c0-.3,0-.6,0-.6s-.2-.1-.4-.2v-.2h1.9Z"/>
    <path d="M65.2,9.2h-2.5c0,.6.2,1.1.5,1.4.2.3.5.4.8.4s.4,0,.5-.2.3-.3.5-.6h.2c-.2.6-.5,1-.8,1.2s-.6.3-1,.3c-.7,0-1.2-.3-1.5-.8-.3-.4-.4-.9-.4-1.6s.2-1.4.6-1.8.9-.7,1.4-.7.9.2,1.2.6.5.9.5,1.7ZM64,8.9c0-.5,0-.9,0-1.1s-.1-.3-.3-.4c0,0-.2,0-.3,0-.2,0-.3,0-.4.2-.2.3-.3.7-.3,1.2v.2h1.3Z"/>
    <path d="M30.7,20.6v1.8c0,.4,0,.6,0,.7s.1.2.2.2.3,0,.6,0v.2h-3.4v-.2c.3,0,.5,0,.6,0s.2-.1.2-.2,0-.3,0-.7v-4.3c0-.4,0-.6,0-.7s-.1-.2-.2-.2-.3,0-.6,0v-.2h2.9c1,0,1.6.2,2,.5s.6.8.6,1.3-.1.8-.4,1.1-.6.5-1.1.6c-.3,0-.8.1-1.6.1ZM30.7,17.4v2.9c.1,0,.2,0,.2,0,.4,0,.7-.1.9-.4s.3-.6.3-1.1-.1-.9-.3-1.1-.5-.3-1-.3h-.2Z"/>
    <path d="M36.3,19.1v1c.3-.5.6-.8.8-.9s.4-.2.7-.2.3,0,.4.2.2.3.2.5,0,.4-.2.5-.2.2-.4.2-.3,0-.4-.2-.2-.2-.2-.2c0,0,0,0-.1,0,0,0-.2,0-.3.1-.1.1-.2.3-.3.5-.1.3-.2.7-.2,1v1.3c0,.2,0,.3,0,.4,0,0,0,.2.2.2s.2,0,.4,0v.2h-2.5v-.2c.2,0,.3,0,.4-.2s.1-.3.1-.7v-2.5c0-.3,0-.4,0-.5,0,0,0-.2-.1-.2s-.2,0-.3,0v-.2h1.9Z"/>
    <path d="M40.9,18.9c.4,0,.8.1,1.1.3s.6.5.8.9.3.8.3,1.2c0,.6-.2,1.2-.5,1.6-.4.5-.9.8-1.6.8s-1.2-.2-1.6-.7-.6-1-.6-1.7.2-1.2.6-1.7.9-.7,1.6-.7ZM40.9,19.3c-.2,0-.3,0-.4.2s-.2.4-.2.7,0,.9,0,1.5,0,.7,0,1c0,.2.1.4.2.5s.3.2.4.2.3,0,.4-.1c.1-.1.2-.3.3-.5,0-.3,0-.9,0-1.9s0-.9,0-1.1-.2-.4-.3-.5c0,0-.2-.1-.3-.1Z"/>
    <path d="M45.7,19.5v3.2c0,.3,0,.5,0,.6.1.1.3.2.6.2v.2h-2.7v-.2c.2,0,.4,0,.4,0s.1-.1.2-.2,0-.2,0-.5v-3.2h-.7v-.5h.7v-.6c0-.5.2-.9.5-1.2s.8-.5,1.4-.5.7,0,.9.2.3.3.3.5,0,.3-.2.4-.3.2-.5.2-.3,0-.4-.1-.1-.2-.1-.3,0,0,0-.2c0,0,0-.1,0-.2s0-.1,0-.2c0,0-.1,0-.2,0s-.2,0-.2.1,0,.2,0,.4v.9s0,.6,0,.6h.7v.5h-.7Z"/>
    <path d="M48.8,19.1v3.6c0,.3,0,.5.1.6s.2.1.4.2v.2h-2.5v-.2c.2,0,.4,0,.4-.2,0,0,0-.3,0-.6v-2.7c0-.3,0-.5-.1-.6s-.2-.1-.4-.2v-.2h1.9ZM48.1,16.8c.2,0,.4,0,.5.2s.2.3.2.5,0,.4-.2.5-.3.2-.5.2-.4,0-.5-.2-.2-.3-.2-.5,0-.4.2-.5.3-.2.5-.2Z"/>
    <path d="M51.6,17v5.7c0,.3,0,.5.1.6s.2.1.4.2v.2h-2.5v-.2c.2,0,.4,0,.4-.2,0,0,0-.3,0-.6v-4.7c0-.3,0-.5-.1-.6s-.2-.1-.4-.2v-.2h1.9Z"/>
    <path d="M54.4,19.1v3.6c0,.3,0,.5.1.6s.2.1.4.2v.2h-2.5v-.2c.2,0,.4,0,.4-.2,0,0,0-.3,0-.6v-2.7c0-.3,0-.5-.1-.6s-.2-.1-.4-.2v-.2h1.9ZM53.7,16.8c.2,0,.4,0,.5.2s.2.3.2.5,0,.4-.2.5-.3.2-.5.2-.4,0-.5-.2-.2-.3-.2-.5,0-.4.2-.5.3-.2.5-.2Z"/>
    <path d="M57.2,19.1v.6c.2-.3.5-.4.7-.6s.4-.2.7-.2.5,0,.7.2.3.4.4.6c0,.2,0,.5,0,1.1v1.8c0,.4,0,.6,0,.7s.2.1.4.2v.2h-2.3v-.2c.2,0,.3,0,.4-.2,0,0,0-.3,0-.6v-2c0-.4,0-.6,0-.7s0-.2-.1-.2-.1,0-.2,0c-.3,0-.5.2-.8.6v2.4c0,.3,0,.6,0,.6s.2.1.4.2v.2h-2.3v-.2c.2,0,.3,0,.4-.2,0,0,0-.3,0-.6v-2.6c0-.3,0-.6,0-.6s-.2-.1-.4-.2v-.2h1.9Z"/>
    <path d="M63.9,19.1h1.5v.5h-.9c.2.2.3.3.3.4,0,.2.1.4.1.6,0,.3,0,.6-.3.8s-.4.4-.7.6-.6.2-.8.2-.2,0-.6,0c-.1,0-.3,0-.4.1s-.1.2-.1.3,0,.2.1.3.2.1.4.1h.8c.7,0,1.2,0,1.4.2.4.2.6.5.6,1s0,.5-.3.8-.4.4-.7.5c-.4.2-.9.2-1.5.2s-.8,0-1.1-.1-.6-.2-.7-.3-.2-.3-.2-.4,0-.3.2-.4.3-.2.6-.3c-.4-.2-.6-.5-.6-.9s0-.4.3-.7.4-.4.8-.6c-.4-.2-.8-.4-.9-.6s-.3-.6-.3-.9.2-.8.5-1.2.8-.5,1.4-.5.6,0,.9.2ZM62.7,24.3c-.3,0-.6,0-.7,0-.2.1-.3.2-.3.4s0,.3.3.5.6.2,1.1.2.8,0,1.1-.2.4-.3.4-.5,0-.1,0-.2c0,0-.2-.2-.4-.2s-.7,0-1.4,0ZM63,19.2c-.2,0-.3,0-.5.3s-.2.6-.2,1.2,0,.8.2,1,.3.3.5.3.4,0,.5-.3.2-.5.2-1,0-1-.2-1.2c-.1-.2-.3-.2-.4-.2Z"/>
  </g>
  <text class="st19" transform="translate(234.5 8.9)"><tspan x="0" y="0">Framework</tspan></text>
  <g>
    <path class="st3" d="M382.2,14.4c-19.9,0-36,.9-36,2s0,0,0,0v15c0,1.1,16.1,2,36,2s36-.9,36-2v-15c0-1.1-16.1-2-36-2Z"/>
    <ellipse class="st3" cx="382.2" cy="16.4" rx="36" ry="2"/>
  </g>
  <g>
    <path d="M361.2,21.9v1.8c.1,0,0,0,0,0-.2-.5-.4-.9-.7-1.2s-.7-.4-1.1-.4-.7,0-1,.3-.5.5-.7.9-.2.9-.2,1.5,0,.9.2,1.2.4.6.7.8.7.3,1.1.3.6,0,.9-.2.6-.4.9-.9h.1c-.3.5-.6.9-.9,1.1s-.8.3-1.3.3c-.9,0-1.6-.3-2-1-.4-.5-.5-1.1-.5-1.7s.1-1,.4-1.5.6-.8,1-1,.9-.4,1.4-.4.8,0,1.1.3c.1,0,.2,0,.2,0,0,0,.1,0,.2,0,0,0,.1-.2.1-.3h.1Z"/>
    <path d="M363,21.7v2.6c.3-.3.5-.5.7-.6s.3-.1.5-.1.4,0,.5.2.3.3.3.5c0,.2,0,.5,0,.9v1.3c0,.2,0,.4,0,.5,0,0,0,.1.1.1s.2,0,.3,0h0c0,.1-1.8.1-1.8.1h0c0-.1,0-.1,0-.1.2,0,.3,0,.3,0s.1-.1.1-.2c0,0,0-.2,0-.4v-1.3c0-.4,0-.6,0-.8s-.1-.2-.2-.3-.2,0-.3,0-.3,0-.4.1-.3.2-.5.4v1.9c0,.2,0,.4,0,.5s0,.1.2.2.2,0,.4,0h0c0,.1-1.8.1-1.8.1h0c.2-.1.3-.2.4-.2,0,0,0,0,.1-.1s0-.2,0-.4v-3.2c0-.4,0-.7,0-.8s0-.2,0-.2,0,0-.2,0-.1,0-.3,0h0c0-.1,1.1-.6,1.1-.6h.2Z"/>
    <path d="M368,26.8c-.4.3-.6.4-.7.5-.1,0-.3,0-.4,0-.2,0-.5,0-.6-.3s-.2-.4-.2-.7,0-.3.1-.5c.1-.2.3-.3.6-.5s.7-.3,1.3-.6h0c0-.5,0-.7-.2-.9s-.3-.2-.5-.2-.3,0-.4.1c0,0-.1.2-.1.3v.2c0,.1,0,.2,0,.3s-.1,0-.2,0-.2,0-.2-.1,0-.2,0-.3c0-.2.1-.4.3-.6s.6-.3,1-.3.6,0,.8.2c.2,0,.3.2.3.4,0,.1,0,.3,0,.7v1.2c0,.3,0,.6,0,.6s0,.1,0,.2,0,0,.1,0,0,0,.1,0c0,0,.2-.1.3-.3v.2c-.3.4-.6.6-.8.6s-.2,0-.3-.1-.1-.2-.1-.5ZM368,26.5v-1.4c-.4.2-.6.3-.8.3-.2.1-.4.2-.4.4s-.1.3-.1.4,0,.3.2.5.2.2.4.2.5-.1.8-.4Z"/>
    <path d="M370.5,23.6v.8c.3-.5.6-.8.9-.8s.3,0,.4.1.1.2.1.3,0,.2-.1.3-.1.1-.2.1-.2,0-.3-.1-.2-.1-.3-.1,0,0-.2,0c-.1.1-.2.3-.4.5v1.7c0,.2,0,.3,0,.4,0,0,0,.1.2.2s.2,0,.4,0h0c0,.1-1.8.1-1.8.1h0c.2-.1.3-.2.4-.2,0,0,.1-.1.1-.2,0,0,0-.2,0-.4v-1.4c0-.4,0-.7,0-.7s0-.1,0-.2-.1,0-.2,0-.2,0-.3,0h0c0-.1,1.1-.6,1.1-.6h.2Z"/>
    <path d="M374.2,26.8c-.4.3-.6.4-.7.5-.1,0-.3,0-.4,0-.2,0-.5,0-.6-.3s-.2-.4-.2-.7,0-.3.1-.5c.1-.2.3-.3.6-.5s.7-.3,1.3-.6h0c0-.5,0-.7-.2-.9s-.3-.2-.5-.2-.3,0-.4.1c0,0-.1.2-.1.3v.2c0,.1,0,.2,0,.3s-.1,0-.2,0-.2,0-.2-.1,0-.2,0-.3c0-.2.1-.4.3-.6s.6-.3,1-.3.6,0,.8.2c.2,0,.3.2.3.4,0,.1,0,.3,0,.7v1.2c0,.3,0,.6,0,.6s0,.1,0,.2,0,0,.1,0,0,0,.1,0c0,0,.2-.1.3-.3v.2c-.3.4-.6.6-.8.6s-.2,0-.3-.1-.1-.2-.1-.5ZM374.2,26.5v-1.4c-.4.2-.6.3-.8.3-.2.1-.4.2-.4.4s-.1.3-.1.4,0,.3.2.5.2.2.4.2.5-.1.8-.4Z"/>
    <path d="M378.7,25.9c0,.5-.3.8-.6,1.1s-.6.4-.9.4-.8-.2-1.1-.5-.5-.8-.5-1.4.2-1,.5-1.4.7-.5,1.2-.5.6,0,.9.3.3.4.3.6,0,.2,0,.2-.2,0-.3,0-.3,0-.3-.1c0,0,0-.2,0-.3s0-.3-.2-.4c0,0-.2-.1-.4-.1-.3,0-.5,0-.6.3-.2.3-.3.6-.3,1s.1.8.3,1.1.5.5.8.5.5,0,.7-.3c.1-.1.3-.3.4-.7h.1Z"/>
    <path d="M380.3,22.5v1.2h.8v.3h-.8v2.3c0,.2,0,.4,0,.5s.2.1.3.1.2,0,.2,0,.1-.1.2-.2h.2c0,.3-.2.4-.4.6s-.3.2-.5.2-.2,0-.4,0-.2-.2-.3-.3,0-.3,0-.6v-2.4h-.6c.1-.2.3-.3.4-.4s.3-.3.4-.5c0,0,.1-.3.2-.5h.1Z"/>
    <path d="M382.1,25.1c0,.5.1.9.4,1.2s.6.5.9.5.4,0,.6-.2.3-.3.4-.7h.1c0,.4-.2.8-.5,1.1s-.6.4-1,.4-.8-.2-1.1-.5-.5-.8-.5-1.3.2-1.1.5-1.4.7-.5,1.2-.5.7.1,1,.4.4.6.4,1.1h-2.5ZM382.1,24.8h1.7c0-.2,0-.4,0-.5,0-.1-.2-.3-.3-.3s-.3-.1-.4-.1c-.2,0-.4,0-.6.3s-.3.4-.3.7Z"/>
    <path d="M386.1,23.6v.8c.3-.5.6-.8.9-.8s.3,0,.4.1.1.2.1.3,0,.2-.1.3-.1.1-.2.1-.2,0-.3-.1-.2-.1-.3-.1,0,0-.2,0c-.1.1-.2.3-.4.5v1.7c0,.2,0,.3,0,.4,0,0,0,.1.2.2s.2,0,.4,0h0c0,.1-1.8.1-1.8.1h0c.2-.1.3-.2.4-.2,0,0,.1-.1.1-.2,0,0,0-.2,0-.4v-1.4c0-.4,0-.7,0-.7s0-.1,0-.2-.1,0-.2,0-.2,0-.3,0h0c0-.1,1.1-.6,1.1-.6h.2Z"/>
    <path d="M388.9,23.6v2.9c0,.2,0,.4,0,.4s0,.1.1.2.2,0,.3,0h0c0,.1-1.7.1-1.7.1h0c.2-.1.3-.2.4-.2s.1,0,.1-.2,0-.2,0-.4v-1.4c0-.4,0-.6,0-.8,0,0,0-.1,0-.2s0,0-.2,0-.2,0-.3,0h0c0-.1,1.1-.6,1.1-.6h.2ZM388.6,21.7c.1,0,.2,0,.3.1s.1.2.1.3,0,.2-.1.3-.2.1-.3.1-.2,0-.3-.1-.1-.2-.1-.3,0-.2.1-.3.2-.1.3-.1Z"/>
    <path d="M393,26.2v1.1h-3.2c0-.1,2.4-3.3,2.4-3.3h-1.2c-.3,0-.4,0-.5,0s-.1,0-.2.2c0,.1-.1.3-.1.5h-.2v-1h3c0,.1-2.4,3.3-2.4,3.3h1.3c.3,0,.5,0,.6,0s.2-.1.2-.2c0,0,0-.3.1-.5h.1Z"/>
    <path d="M395.5,26.8c-.4.3-.6.4-.7.5-.1,0-.3,0-.4,0-.2,0-.5,0-.6-.3s-.2-.4-.2-.7,0-.3.1-.5c.1-.2.3-.3.6-.5s.7-.3,1.3-.6h0c0-.5,0-.7-.2-.9s-.3-.2-.5-.2-.3,0-.4.1c0,0-.1.2-.1.3v.2c0,.1,0,.2,0,.3s-.1,0-.2,0-.2,0-.2-.1,0-.2,0-.3c0-.2.1-.4.3-.6s.6-.3,1-.3.6,0,.8.2c.2,0,.3.2.3.4,0,.1,0,.3,0,.7v1.2c0,.3,0,.6,0,.6s0,.1,0,.2,0,0,.1,0,0,0,.1,0c0,0,.2-.1.3-.3v.2c-.3.4-.6.6-.8.6s-.2,0-.3-.1-.1-.2-.1-.5ZM395.5,26.5v-1.4c-.4.2-.6.3-.8.3-.2.1-.4.2-.4.4s-.1.3-.1.4,0,.3.2.5.2.2.4.2.5-.1.8-.4Z"/>
    <path d="M398,22.5v1.2h.8v.3h-.8v2.3c0,.2,0,.4,0,.5s.2.1.3.1.2,0,.2,0,.1-.1.2-.2h.2c0,.3-.2.4-.4.6s-.3.2-.5.2-.2,0-.4,0-.2-.2-.3-.3,0-.3,0-.6v-2.4h-.6c.1-.2.3-.3.4-.4s.3-.3.4-.5c0,0,.1-.3.2-.5h.1Z"/>
    <path d="M400.5,23.6v2.9c0,.2,0,.4,0,.4s0,.1.1.2.2,0,.3,0h0c0,.1-1.7.1-1.7.1h0c.2-.1.3-.2.4-.2s.1,0,.1-.2,0-.2,0-.4v-1.4c0-.4,0-.6,0-.8,0,0,0-.1,0-.2s0,0-.2,0-.2,0-.3,0h0c0-.1,1.1-.6,1.1-.6h.2ZM400.1,21.7c.1,0,.2,0,.3.1s.1.2.1.3,0,.2-.1.3-.2.1-.3.1-.2,0-.3-.1-.1-.2-.1-.3,0-.2.1-.3.2-.1.3-.1Z"/>
    <path d="M403.2,23.6c.5,0,1,.2,1.3.6.3.4.4.8.4,1.2s0,.6-.2,1-.4.6-.6.7-.6.2-.9.2c-.5,0-1-.2-1.3-.6-.3-.4-.4-.8-.4-1.2s0-.7.2-1,.4-.6.6-.7.5-.2.8-.2ZM403.1,23.9c-.1,0-.3,0-.4.1s-.3.2-.3.4-.1.5-.1.8c0,.5.1,1,.3,1.3s.5.6.8.6.5-.1.6-.3.2-.6.2-1.1-.1-1.1-.4-1.5c-.2-.2-.4-.4-.7-.4Z"/>
    <path d="M406.5,24.4c.4-.5.8-.8,1.2-.8s.4,0,.5.1.3.3.3.5c0,.2,0,.4,0,.7v1.5c0,.2,0,.4,0,.5,0,0,0,.1.1.2s.2,0,.4,0h0c0,.1-1.8.1-1.8.1h0c0-.1,0-.1,0-.1.2,0,.3,0,.3,0s.1-.1.1-.2c0,0,0-.2,0-.4v-1.5c0-.3,0-.6-.1-.7s-.2-.2-.4-.2c-.3,0-.6.2-.9.5v1.9c0,.2,0,.4,0,.4,0,0,0,.1.2.2s.2,0,.4,0h0c0,.1-1.8.1-1.8.1h0c0-.1,0-.1,0-.1.2,0,.3,0,.4-.1s0-.3,0-.5v-1.3c0-.4,0-.7,0-.8s0-.2,0-.2,0,0-.2,0-.2,0-.3,0h0c0-.1,1.1-.6,1.1-.6h.2v.8Z"/>
  </g>
  <text class="st24" transform="translate(440 12.7)"><tspan x="0" y="0">List of Potential </tspan><tspan x="13.1" y="9.6">Systems</tspan></text>
  <g>
    <rect class="st0" x="437" y="26" width="28.8" height="14.4"/>
    <text class="st21" transform="translate(444.7 35.6)"><tspan x="0" y="0">CO</tspan></text>
    <text class="st21" transform="translate(455.8 38.2) scale(.6)"><tspan x="0" y="0">2</tspan></text>
  </g>
  <g>
    <rect class="st0" x="473" y="26" width="21.6" height="14.4"/>
    <text class="st21" transform="translate(481.8 36.1)"><tspan x="0" y="0">$</tspan></text>
  </g>
  <g>
    <rect class="st0" x="473" y="43.6" width="21.6" height="14.4"/>
    <text class="st21" transform="translate(477.1 53.5)"><tspan x="0" y="0">Perf</tspan></text>
  </g>
  <g>
    <rect class="st0" x="437" y="43.6" width="28.8" height="14.4"/>
    <text class="st21" transform="translate(439.8 53.2)"><tspan x="0" y="0">Energy</tspan></text>
  </g>
  <g>
    <rect class="st0" x="437" y="61.2" width="43.2" height="14.4"/>
    <text class="st21" transform="translate(443.3 70.5)"><tspan x="0" y="0">Accuracy</tspan></text>
  </g>
  <text class="st21" transform="translate(447.2 132.8)"><tspan x="0" y="0">Database</tspan></text>
  <text class="st21" transform="translate(447.2 144.6)"><tspan x="0" y="0">Selected </tspan><tspan x="0" y="6">Component</tspan></text>
  <text class="st21" transform="translate(447.2 160.2)"><tspan x="0" y="0">Input</tspan></text>
  <text class="st21" transform="translate(447.2 174.6)"><tspan x="0" y="0">Trace</tspan></text>
  <text class="st21" transform="translate(447.2 188.4)"><tspan x="0" y="0">Process</tspan></text>
  <g>
    <polyline class="st9" points="445.2 80 445.2 109.7 493.5 109.7"/>
    <polygon points="443.5 82 445.2 80.3 446.9 82 446.9 80.6 445.2 78.9 443.5 80.6 443.5 82"/>
    <polygon points="491.5 111.4 493.2 109.7 491.5 108 492.9 108 494.6 109.7 492.9 111.4 491.5 111.4"/>
  </g>
  <g>
    <path class="st3" d="M46.8,108.4c-21.9,0-39.6,1-39.6,2.2s0,0,0,0v15.9c0,1.2,17.7,2.2,39.6,2.2s39.6-1,39.6-2.2v-15.9c0-1.2-17.7-2.2-39.6-2.2Z"/>
    <ellipse class="st3" cx="46.8" cy="110.6" rx="39.6" ry="2.2"/>
  </g>
  <text class="st22" transform="translate(18.1 122.8)"><tspan x="0" y="0">Characterization</tspan></text>
  <text class="st22" transform="translate(10.3 146.1)"><tspan x="0" y="0">Runtime and energy </tspan><tspan x="8" y="10.8">profiling of ML </tspan><tspan x="2.7" y="21.6">models running on </tspan><tspan x="9.9" y="32.4">each processor</tspan></text>
  <g>
    <path class="st3" d="M369.8,166.2c-20.7,0-37.5,1.4-37.5,3.1s0,0,0,0v22.6c0,1.7,16.8,3.1,37.5,3.1s37.5-1.4,37.5-3.1v-22.6c0-1.7-16.8-3.1-37.5-3.1Z"/>
    <ellipse class="st3" cx="369.8" cy="169.3" rx="37.5" ry="3.1"/>
  </g>
  <g>
    <path class="st3" d="M437,125.8c-2.6,0-4.8.5-4.8,1.1s0,0,0,0v7.9c0,.6,2.1,1.1,4.8,1.1s4.8-.5,4.8-1.1v-7.9c0-.6-2.1-1.1-4.8-1.1Z"/>
    <ellipse class="st3" cx="437" cy="126.9" rx="4.8" ry="1.1"/>
  </g>
  <text class="st22" transform="translate(343.6 186.3)"><tspan x="0" y="0">Carbon &amp; Cost </tspan></text>
  <path class="st2" d="M348.6,109.5h50.4c4,0,7.2,3.2,7.2,7.2v39.5h-50.4c-4,0-7.2-3.2-7.2-7.2v-39.5h0Z"/>
  <text class="st22" transform="translate(351.1 119.5)"><tspan x="0" y="0">Power System </tspan><tspan x="2.7" y="10.8">Candidates + </tspan><tspan x="7.8" y="21.6">Peripheral </tspan><tspan x="3.6" y="32.4">Components</tspan></text>
  <rect class="st17" x="265.2" y="118.9" width="57.6" height="68.4"/>
  <text class="st22" transform="translate(280.8 127.4)"><tspan x="0" y="0">Energy </tspan><tspan x="-7.9" y="10.8">Capacity of </tspan><tspan x="-12.9" y="21.6">Power System </tspan><tspan x="-9.1" y="32.4">Required by </tspan><tspan x="-8.9" y="43.2">Sensing and </tspan><tspan x="-3.5" y="54">Compute </tspan></text>
  <g>
    <line class="st29" x1="93.6" x2="93.6" y2="197.2"/>
    <g>
      <line class="st8" x1="93.6" y1="0" x2="93.6" y2="1.5"/>
      <line class="st12" x1="93.6" y1="4.5" x2="93.6" y2="194.2"/>
      <line class="st8" x1="93.6" y1="195.7" x2="93.6" y2="197.2"/>
    </g>
  </g>
  <g>
    <path d="M104.2,35.2c0,.1,0,.3,0,.4,0,.3,0,.5.3.7s.4.3.7.3.4,0,.6-.1c.2,0,.5-.3.9-.6h0c-.7.8-1.4,1.2-2,1.2s-.8-.1-1-.4-.3-.6-.3-.9.1-.9.4-1.3.6-.8,1-1.1.8-.4,1.3-.4.5,0,.7.2.2.3.2.4,0,.5-.3.7c-.3.3-.6.5-1.1.7-.3.1-.8.2-1.4.3ZM104.2,35c.4,0,.8-.1,1.1-.3.4-.2.6-.4.8-.6.2-.2.3-.4.3-.6s0-.2-.1-.3c0,0-.2-.1-.3-.1-.3,0-.6.2-1,.5-.3.3-.6.8-.7,1.4Z"/>
    <path d="M107.8,36.1c.1,0,.2,0,.3.1,0,0,.1.2.1.3s0,.2-.1.3c0,0-.2.1-.3.1s-.2,0-.3-.1c0,0-.1-.2-.1-.3s0-.2.1-.3c0,0,.2-.1.3-.1Z"/>
    <path d="M114,33.2v.5h-.9c0,.2,0,.3,0,.4,0,.4-.2.7-.5,1-.3.3-.8.5-1.4.5-.3,0-.5.2-.7.3,0,0,0,0,0,.1s0,.1,0,.2c0,0,.2,0,.4.1l.9.2c.5.1.8.2.9.4.1.2.2.3.2.5s0,.5-.3.7c-.2.2-.4.4-.8.5-.3.1-.7.2-1.1.2s-.7,0-1-.1-.5-.2-.6-.3-.2-.3-.2-.5,0-.3.1-.4c0-.1.2-.2.3-.3,0,0,.3-.2.7-.4-.1-.1-.2-.2-.2-.3s0-.2.2-.4c.1-.1.4-.3.8-.4-.3,0-.6-.2-.8-.4-.2-.2-.3-.4-.3-.7,0-.4.2-.8.5-1.1.4-.3.9-.5,1.5-.5s.4,0,.5,0,.3.1.4.2h1.2ZM110.4,36.9c-.2.1-.4.2-.5.4s-.2.3-.2.5,0,.4.3.5c.3.2.6.3,1.1.3s.8,0,1.1-.2c.3-.1.4-.3.4-.6s0-.2-.2-.3c-.1-.1-.3-.2-.6-.3-.2,0-.6-.1-1.4-.3ZM112.5,33.9c0-.2,0-.4-.2-.6-.1-.1-.3-.2-.5-.2-.3,0-.6.2-.8.5-.2.3-.3.7-.3,1s0,.4.2.6.3.2.5.2.3,0,.5-.1c.1,0,.3-.2.4-.4s.2-.3.2-.6,0-.4,0-.5Z"/>
    <path d="M114.6,36.1c.1,0,.2,0,.3.1,0,0,.1.2.1.3s0,.2-.1.3c0,0-.2.1-.3.1s-.2,0-.3-.1c0,0-.1-.2-.1-.3s0-.2.1-.3c0,0,.2-.1.3-.1Z"/>
    <path d="M103.5,41.6l-1.4,4.9c0,.3-.1.5-.1.6s0,.2.1.2c0,0,.2,0,.5.1v.2h-2.3v-.2c.3,0,.5,0,.5,0,.1,0,.2-.1.3-.2,0-.1.2-.4.3-.7l1-3.5c0-.2,0-.3.1-.4,0,0,0-.1,0-.2,0-.1,0-.2,0-.2s-.1,0-.2,0-.2,0-.4,0v-.2c0,0,1.4-.4,1.4-.4h.2Z"/>
    <path d="M108.7,47.5v.2h-2.5v-.2c.3,0,.5,0,.5,0,.1,0,.2-.1.3-.2,0-.1.2-.4.3-.7l1-3.6c0-.3.1-.5.1-.7s0-.1,0-.2,0,0-.2-.1c0,0-.2,0-.5,0v-.2h2.4v.2c-.2,0-.4,0-.5,0-.1,0-.2.1-.3.3,0,.1-.2.3-.3.7l-1,3.6c0,.3-.1.5-.1.6s0,.1,0,.2c0,0,0,0,.2.1s.2,0,.5,0Z"/>
    <path d="M110.9,41.7h2.3c.6,0,1.1.1,1.4.4.3.3.5.6.5,1s0,.6-.3.9-.5.5-.9.7c-.4.2-.8.3-1.2.3s-.6,0-1.1-.1l-.5,1.6c-.1.4-.2.6-.2.8s0,.2.1.2.3.1.6.1v.2h-2.4v-.2c.4,0,.6,0,.7-.2.1-.1.3-.4.4-.9l1-3.4c.1-.4.2-.7.2-.8s0-.2-.1-.3c0,0-.3-.1-.6-.1v-.2ZM111.7,44.5c.3,0,.6.1.8.1.3,0,.6,0,.9-.2.3-.1.5-.3.6-.6.1-.3.2-.5.2-.8s0-.5-.3-.7-.5-.3-.8-.3-.4,0-.7,0l-.7,2.4Z"/>
    <path d="M115,47.8l.5-2.2h.1c0,.2,0,.4,0,.5,0,.4.1.7.4,1s.6.4,1,.4.7-.1.9-.4.3-.5.3-.8,0-.4-.1-.5c-.1-.2-.5-.7-1.1-1.3-.3-.3-.5-.5-.6-.7-.1-.2-.2-.5-.2-.7,0-.4.2-.8.5-1.1s.7-.4,1.2-.4.3,0,.5,0c0,0,.3,0,.5.2.2,0,.3.1.3.1,0,0,0,0,.1,0,0,0,.2,0,.2,0s.1-.1.2-.3h.2l-.5,2h-.1c0-.2,0-.3,0-.4,0-.4-.1-.6-.4-.9s-.5-.3-.9-.3-.6,0-.7.3-.3.4-.3.6,0,.4.2.6c.1.2.4.5.8.9.4.4.7.7.9,1s.2.5.2.8,0,.6-.2.9c-.2.3-.4.5-.7.7s-.6.2-1,.2-.3,0-.5,0-.4-.1-.7-.2c-.1,0-.2,0-.3,0-.2,0-.3.1-.4.4h-.2Z"/>
  </g>
  <text class="st22" transform="translate(155.2 40.9)"><tspan x="0" y="0">Y</tspan></text>
  <rect class="st27" x="97.7" y="158.7" width="55.7" height="38.5"/>
  <rect class="st7" x="100.8" y="162.4" width="50.4" height="13.8" rx="3.7" ry="3.7"/>
  <text class="st22" transform="translate(102.9 172.1)"><tspan x="0" y="0">Power Mode</tspan></text>
  <text class="st26" transform="translate(100.8 183.7)"><tspan x="0" y="0">e.g. solar </tspan><tspan x="0" y="10.8">harvesting</tspan></text>
  <text class="st26" transform="translate(100.8 142.1)"><tspan x="0" y="0">e.g. indoors, </tspan><tspan x="0" y="10.8">near window</tspan></text>
  <g>
    <polyline class="st9" points="140.6 56.9 140.6 59.8 122.4 59.8 122.4 31 140.6 31 140.6 38.2"/>
    <polygon points="137.6 57.8 140.6 52.6 143.6 57.8 137.6 57.8"/>
  </g>
  <g>
    <polyline class="st9" points="165.6 20.7 337.8 20.7 341.3 20.7"/>
    <polygon points="340.4 23.7 345.6 20.7 340.4 17.7 340.4 23.7"/>
  </g>
  <g>
    <line class="st9" x1="234.5" y1="49" x2="234.5" y2="51.9"/>
    <polygon points="231.5 51 234.5 56.2 237.5 51 231.5 51"/>
  </g>
  <g>
    <line class="st9" x1="301.4" y1="49" x2="301.4" y2="51.9"/>
    <polygon points="298.4 51 301.4 56.2 304.4 51 298.4 51"/>
  </g>
  <g>
    <line class="st9" x1="317.6" y1="76.2" x2="317.6" y2="83.5"/>
    <polygon points="314.6 82.7 317.6 87.9 320.6 82.7 314.6 82.7"/>
  </g>
  <g>
    <line class="st9" x1="382.6" y1="69.5" x2="382.6" y2="83.5"/>
    <polygon points="379.6 82.7 382.5 87.9 385.5 82.7 379.6 82.7"/>
  </g>
  <g>
    <line class="st9" x1="262.1" y1="95.2" x2="270.2" y2="95.2"/>
    <polygon points="269.3 98.2 274.5 95.2 269.3 92.2 269.3 98.2"/>
  </g>
  <g>
    <line class="st9" x1="247.8" y1="130.2" x2="260.5" y2="130.2"/>
    <polygon points="259.6 133.2 264.8 130.2 259.6 127.2 259.6 133.2"/>
  </g>
  <g>
    <line class="st9" x1="247.8" y1="179.8" x2="260.4" y2="179.8"/>
    <polygon points="259.5 182.8 264.7 179.8 259.5 176.8 259.5 182.8"/>
  </g>
  <g>
    <line class="st9" x1="247.8" y1="158" x2="260.5" y2="158"/>
    <polygon points="259.6 161 264.8 158 259.6 155 259.6 161"/>
  </g>
  <g>
    <line class="st9" x1="382.5" y1="52.5" x2="382.6" y2="34"/>
    <polygon points="385.5 51.6 382.5 56.8 379.6 51.6 385.5 51.6"/>
  </g>
  <g>
    <line class="st9" x1="234.8" y1="21.1" x2="234.8" y2="24"/>
    <polygon points="231.8 23.1 234.8 28.3 237.7 23.1 231.8 23.1"/>
  </g>
  <g>
    <polyline class="st9" points="79.2 74.3 79.2 36 64.8 36"/>
    <polygon points="82.2 73.4 79.2 78.6 76.2 73.4 82.2 73.4"/>
  </g>
  <line x1="301.4" y1="20.2" x2="301.4" y2="28.3"/>
  <g>
    <line class="st9" x1="168.7" y1="111.7" x2="179.5" y2="111.7"/>
    <polygon points="178.6 114.7 183.8 111.7 178.6 108.7 178.6 114.7"/>
  </g>
  <g>
    <polyline class="st9" points="168.6 173.4 168.6 130.2 185.9 130.2"/>
    <polygon points="185 133.2 190.2 130.2 185 127.2 185 133.2"/>
  </g>
  <g>
    <line class="st9" x1="168.6" y1="158" x2="185.9" y2="158"/>
    <polygon points="185 161 190.2 158 185 155 185 161"/>
  </g>
  <g>
    <polyline class="st9" points="64.8 57.6 72 57.6 72 74.3"/>
    <polygon points="69 73.4 72 78.6 75 73.4 69 73.4"/>
  </g>
  <g>
    <line class="st9" x1="46.8" y1="94" x2="46.8" y2="104.1"/>
    <polygon points="43.8 103.2 46.8 108.4 49.8 103.2 43.8 103.2"/>
  </g>
  <g>
    <polyline class="st9" points="416.5 95.2 425.4 95.2 425.4 95.2 425.5 95.2"/>
    <polygon points="424.6 98.2 429.8 95.2 424.6 92.2 424.6 98.2"/>
  </g>
  <polyline class="st9" points="419.3 95.2 419.3 136.3 406.2 136.3"/>
  <polyline class="st9" points="150.6 76.7 150.6 76.7 317.6 76.7"/>
  <rect class="st7" x="100.8" y="111.6" width="50.4" height="21.6" rx="3.4" ry="3.4"/>
  <text class="st26" transform="translate(101 100.7)"><tspan x="0" y="0">e.g. 2 months</tspan></text>
  <g>
    <path d="M104.1,119.1v-.2h.2c.3,0,.4,0,.5-.2,0,0,0-.3,0-.7v-3.8c0-.4,0-.6-.1-.7-.1-.1-.3-.2-.5-.2h-.2v-.2h2.4c.9,0,1.6.1,2,.3.5.2.8.5,1.1,1s.4,1,.4,1.6-.3,1.5-.8,2.1c-.6.6-1.4.9-2.6.9h-2.7ZM105.8,118.7c.4,0,.7.1.9.1.7,0,1.2-.2,1.7-.7s.7-1.1.7-1.9-.2-1.5-.7-1.9-1-.7-1.7-.7-.6,0-.9.1v5.1Z"/>
    <path d="M111.4,116.6c0,.6.1,1.1.4,1.4s.6.5,1,.5.5,0,.7-.2c.2-.1.4-.4.5-.7h.1c0,.5-.2.9-.5,1.2-.3.3-.7.5-1.1.5s-.9-.2-1.2-.6c-.3-.4-.5-.9-.5-1.5s.2-1.2.5-1.6.8-.6,1.3-.6.8.1,1.1.4.4.7.4,1.2h-2.8ZM111.4,116.4h1.9c0-.3,0-.4,0-.5,0-.2-.2-.3-.3-.4-.1,0-.3-.1-.5-.1-.2,0-.5,0-.7.3-.2.2-.3.5-.3.8Z"/>
    <path d="M114.5,115.5l1.2-.5h.2v.9c.2-.4.4-.6.6-.7s.4-.2.7-.2c.4,0,.7.2,1,.5.3.4.5.9.5,1.5s-.2,1.3-.6,1.7c-.3.4-.7.6-1.2.6s-.4,0-.6,0c-.1,0-.2-.1-.4-.3v1.2c0,.3,0,.5,0,.5,0,0,0,.1.2.2,0,0,.2,0,.5,0v.2h-2.1v-.2h.1c.2,0,.3,0,.4,0,0,0,0,0,.1-.2,0,0,0-.3,0-.5v-3.8c0-.3,0-.4,0-.5s0-.1-.1-.2-.1,0-.2,0-.2,0-.3,0h0ZM115.9,116.2v1.5c0,.3,0,.5,0,.6,0,.2.1.3.3.4.2.1.4.2.6.2s.5-.1.7-.3c.2-.3.4-.7.4-1.3s-.1-1.1-.4-1.4c-.2-.2-.4-.3-.7-.3s-.3,0-.4.1c-.1,0-.3.2-.5.5Z"/>
    <path d="M120.6,112.9v5.3c0,.3,0,.4,0,.5,0,0,0,.1.2.2s.2,0,.4,0v.2h-2v-.2c.2,0,.3,0,.4,0s.1-.1.2-.2,0-.3,0-.5v-3.7c0-.5,0-.7,0-.8,0-.1,0-.2,0-.2,0,0-.1,0-.2,0s-.2,0-.3,0v-.2c0,0,1.1-.5,1.1-.5h.2Z"/>
    <path d="M123.7,115c.6,0,1.1.2,1.5.7.3.4.5.8.5,1.4s0,.7-.3,1.1-.4.6-.7.8c-.3.2-.6.3-1,.3-.6,0-1.1-.2-1.4-.7-.3-.4-.5-.9-.5-1.4s0-.7.3-1.1c.2-.4.4-.6.7-.8.3-.2.6-.3.9-.3ZM123.6,115.3c-.2,0-.3,0-.5.1-.2,0-.3.3-.4.5s-.1.5-.1.9c0,.6.1,1.1.3,1.5.2.4.5.6.9.6s.5-.1.7-.4.3-.6.3-1.2-.2-1.3-.5-1.7c-.2-.3-.5-.4-.8-.4Z"/>
    <path d="M126,115.1h1.9v.2h0c-.1,0-.2,0-.3,0,0,0,0,.1,0,.2s0,.3.1.5l1,2,.9-2.2c0-.1,0-.2,0-.4s0,0,0-.1c0,0,0,0-.1,0s-.1,0-.3,0v-.2h1.3v.2c-.1,0-.2,0-.3,0s-.1.1-.2.2c0,0,0,.2-.1.3l-1.6,4c-.2.4-.4.7-.6.9s-.5.3-.7.3-.3,0-.4-.1-.2-.2-.2-.3,0-.2.1-.3c0,0,.2-.1.3-.1s.2,0,.4,0c.1,0,.2,0,.2,0,0,0,.2,0,.3-.1.1,0,.2-.3.3-.5l.3-.7-1.4-3c0,0-.1-.2-.2-.3,0-.1-.1-.2-.2-.2,0,0-.2,0-.3-.1v-.2Z"/>
    <path d="M132,115.8c.3-.3.5-.5.5-.5.1-.1.3-.2.4-.3s.3,0,.5,0c.3,0,.5,0,.7.2s.3.4.4.6c.3-.4.6-.6.8-.7.2-.1.4-.2.6-.2s.4,0,.6.2c.2.1.3.3.4.5,0,.2,0,.4,0,.8v1.7c0,.3,0,.4,0,.5,0,0,0,.1.2.2,0,0,.2,0,.4,0v.2h-2v-.2h0c.2,0,.3,0,.4-.1,0,0,.1-.1.1-.2,0,0,0-.2,0-.4v-1.7c0-.3,0-.6-.1-.7-.1-.2-.3-.3-.5-.3s-.3,0-.5.1c-.2,0-.3.2-.6.4h0s0,.2,0,.2v1.9c0,.3,0,.4,0,.5,0,0,0,.1.2.2,0,0,.2,0,.4,0v.2h-2v-.2c.2,0,.4,0,.5,0,0,0,.1-.1.2-.2,0,0,0-.2,0-.4v-1.7c0-.3,0-.6-.1-.7-.1-.2-.3-.3-.5-.3s-.3,0-.5.1c-.2.1-.4.3-.6.4v2.2c0,.3,0,.4,0,.5s0,.1.2.2c0,0,.2,0,.4,0v.2h-2v-.2c.2,0,.3,0,.4,0,0,0,.1-.1.2-.2s0-.3,0-.5v-1.5c0-.4,0-.7,0-.9,0,0,0-.2,0-.2,0,0-.1,0-.2,0s-.2,0-.3,0v-.2c0,0,1.1-.5,1.1-.5h.2v.9Z"/>
    <path d="M138.4,116.6c0,.6.1,1.1.4,1.4s.6.5,1,.5.5,0,.7-.2c.2-.1.4-.4.5-.7h.1c0,.5-.2.9-.5,1.2-.3.3-.7.5-1.1.5s-.9-.2-1.2-.6c-.3-.4-.5-.9-.5-1.5s.2-1.2.5-1.6.8-.6,1.3-.6.8.1,1.1.4.4.7.4,1.2h-2.8ZM138.4,116.4h1.9c0-.3,0-.4,0-.5,0-.2-.2-.3-.3-.4-.1,0-.3-.1-.5-.1-.2,0-.5,0-.7.3-.2.2-.3.5-.3.8Z"/>
    <path d="M142.9,115.8c.5-.6.9-.9,1.3-.9s.4,0,.6.2c.2.1.3.3.4.5,0,.2,0,.4,0,.8v1.7c0,.3,0,.4,0,.5,0,0,0,.1.2.2s.2,0,.4,0v.2h-2v-.2h0c.2,0,.3,0,.4,0,0,0,.1-.1.2-.3,0,0,0-.2,0-.4v-1.6c0-.4,0-.6-.1-.8,0-.2-.3-.2-.5-.2-.3,0-.7.2-1,.6v2.1c0,.3,0,.4,0,.5,0,0,0,.1.2.2,0,0,.2,0,.4,0v.2h-2v-.2h0c.2,0,.3,0,.4-.2,0-.1.1-.3.1-.6v-1.5c0-.5,0-.8,0-.9,0-.1,0-.2-.1-.2,0,0-.1,0-.2,0s-.2,0-.3,0v-.2c0,0,1.1-.5,1.1-.5h.2v.9Z"/>
    <path d="M147.4,113.8v1.3h.9v.3h-.9v2.6c0,.3,0,.4.1.5,0,0,.2.1.3.1s.2,0,.3,0c0,0,.2-.1.2-.3h.2c-.1.3-.2.5-.4.6-.2.1-.4.2-.6.2s-.3,0-.4-.1c-.1,0-.2-.2-.3-.3,0-.1,0-.4,0-.6v-2.7h-.6c.2-.2.3-.3.5-.5.2-.2.3-.3.5-.5,0-.1.2-.3.3-.6h.1Z"/>
    <path d="M115.4,128.3h.1s-.5,1.6-.5,1.6h-4.6v-.2h.2c.3,0,.4,0,.5-.2,0,0,0-.3,0-.7v-3.8c0-.4,0-.6-.1-.7-.1-.1-.3-.2-.5-.2h-.2v-.2h2.7v.2c-.3,0-.5,0-.7,0-.1,0-.2.1-.3.2s0,.3,0,.7v3.7c0,.2,0,.4,0,.5,0,0,0,.1.2.1s.3,0,.7,0h.4c.5,0,.8,0,1-.1s.4-.2.5-.4c.2-.2.3-.4.5-.8Z"/>
    <path d="M118,125.8c.6,0,1.1.2,1.5.7.3.4.5.8.5,1.4s0,.7-.3,1.1-.4.6-.7.8c-.3.2-.6.3-1,.3-.6,0-1.1-.2-1.4-.7-.3-.4-.5-.9-.5-1.4s0-.7.3-1.1c.2-.4.4-.6.7-.8.3-.2.6-.3.9-.3ZM117.8,126.1c-.2,0-.3,0-.5.1-.2,0-.3.3-.4.5s-.1.5-.1.9c0,.6.1,1.1.3,1.5.2.4.5.6.9.6s.5-.1.7-.4.3-.6.3-1.2-.2-1.3-.5-1.7c-.2-.3-.5-.4-.8-.4Z"/>
    <path d="M123.9,128.4c-.1.5-.3.9-.6,1.2-.3.3-.7.4-1.1.4s-.9-.2-1.2-.6-.5-.9-.5-1.6.2-1.1.6-1.5.8-.6,1.4-.6.7.1,1,.3c.3.2.4.4.4.7s0,.2-.1.3c0,0-.2.1-.3.1s-.3,0-.4-.2c0,0,0-.2,0-.4,0-.2,0-.3-.2-.4-.1,0-.2-.1-.4-.1-.3,0-.5.1-.7.3-.2.3-.4.7-.4,1.1s.1.9.4,1.3c.2.4.6.6,1,.6s.5,0,.8-.3c.2-.1.3-.4.5-.7h.1Z"/>
    <path d="M126.8,129.3c-.4.3-.7.5-.8.6-.2,0-.3.1-.5.1-.3,0-.5,0-.7-.3-.2-.2-.3-.4-.3-.8s0-.4.1-.5c.1-.2.3-.4.6-.6.3-.2.8-.4,1.5-.6v-.2c0-.4,0-.7-.2-.8-.1-.1-.3-.2-.6-.2s-.3,0-.4.1c-.1,0-.2.2-.2.3v.3c0,.1,0,.2,0,.3,0,0-.2.1-.3.1s-.2,0-.3-.1c0,0-.1-.2-.1-.3,0-.3.1-.5.4-.7s.6-.3,1.1-.3.7,0,.9.2c.2,0,.3.2.4.4,0,.1,0,.4,0,.8v1.4c0,.4,0,.6,0,.7,0,0,0,.1,0,.2,0,0,0,0,.1,0s0,0,.1,0c0,0,.2-.1.4-.3v.2c-.3.4-.6.7-.9.7s-.3,0-.3-.1-.1-.3-.1-.5ZM126.8,129.1v-1.5c-.4.2-.7.3-.9.4-.2.1-.4.3-.5.4s-.1.3-.1.5,0,.4.2.5c.1.1.3.2.4.2s.5-.1.9-.4Z"/>
    <path d="M129.7,124.6v1.3h.9v.3h-.9v2.6c0,.3,0,.4.1.5,0,0,.2.1.3.1s.2,0,.3,0c0,0,.2-.1.2-.3h.2c-.1.3-.2.5-.4.6-.2.1-.4.2-.6.2s-.3,0-.4-.1c-.1,0-.2-.2-.3-.3,0-.1,0-.4,0-.6v-2.7h-.6c.2-.2.3-.3.5-.5.2-.2.3-.3.5-.5,0-.1.2-.3.3-.6h.1Z"/>
    <path d="M132.4,125.8v3.2c0,.3,0,.4,0,.5,0,0,0,.1.2.2,0,0,.2,0,.4,0v.2h-2v-.2c.2,0,.3,0,.4,0s.1-.1.2-.2c0,0,0-.3,0-.5v-1.6c0-.4,0-.7,0-.8,0,0,0-.2,0-.2,0,0-.1,0-.2,0s-.2,0-.3,0v-.2c0,0,1.2-.5,1.2-.5h.2ZM132,123.7c.1,0,.2,0,.3.1,0,0,.1.2.1.3s0,.2-.1.3-.2.1-.3.1-.2,0-.3-.1-.1-.2-.1-.3,0-.2.1-.3c0,0,.2-.1.3-.1Z"/>
    <path d="M135.5,125.8c.6,0,1.1.2,1.5.7.3.4.5.8.5,1.4s0,.7-.3,1.1-.4.6-.7.8c-.3.2-.6.3-1,.3-.6,0-1.1-.2-1.4-.7-.3-.4-.5-.9-.5-1.4s0-.7.3-1.1c.2-.4.4-.6.7-.8.3-.2.6-.3.9-.3ZM135.3,126.1c-.2,0-.3,0-.5.1-.2,0-.3.3-.4.5s-.1.5-.1.9c0,.6.1,1.1.3,1.5.2.4.5.6.9.6s.5-.1.7-.4.3-.6.3-1.2-.2-1.3-.5-1.7c-.2-.3-.5-.4-.8-.4Z"/>
    <path d="M139.2,126.6c.5-.6.9-.9,1.3-.9s.4,0,.6.2c.2.1.3.3.4.5,0,.2,0,.4,0,.8v1.7c0,.3,0,.4,0,.5,0,0,0,.1.2.2s.2,0,.4,0v.2h-2v-.2h0c.2,0,.3,0,.4,0,0,0,.1-.1.2-.3,0,0,0-.2,0-.4v-1.6c0-.4,0-.6-.1-.8,0-.2-.3-.2-.5-.2-.3,0-.7.2-1,.6v2.1c0,.3,0,.4,0,.5,0,0,0,.1.2.2,0,0,.2,0,.4,0v.2h-2v-.2h0c.2,0,.3,0,.4-.2,0-.1.1-.3.1-.6v-1.5c0-.5,0-.8,0-.9,0-.1,0-.2-.1-.2,0,0-.1,0-.2,0s-.2,0-.3,0v-.2c0,0,1.1-.5,1.1-.5h.2v.9Z"/>
  </g>
  <g>
    <line class="st9" x1="151.2" y1="45.4" x2="161.3" y2="45.4"/>
    <polygon points="160.4 48.4 165.6 45.4 160.4 42.4 160.4 48.4"/>
  </g>
  <g>
    <line class="st9" x1="380.3" y1="165.6" x2="380.3" y2="161.1"/>
    <polygon points="383.3 161.9 380.3 156.8 377.3 161.9 383.3 161.9"/>
  </g>
  <text class="st18" transform="translate(458.7 116.3) scale(.6)"><tspan x="0" y="0">cost($)</tspan></text>
  <text class="st18" transform="translate(442.7 105.6) rotate(-90) scale(.6)"><tspan x="0" y="0">Carbon</tspan></text>
  <circle class="st4" cx="463.6" cy="96.6" r=".2"/>
  <circle class="st13" cx="480.2" cy="100.6" r=".2"/>
  <circle class="st14" cx="469.9" cy="90.4" r=".2"/>
  <circle class="st16" cx="453.9" cy="85.1" r=".2"/>
  <circle class="st15" cx="462" cy="102.8" r=".2"/>
  <circle class="st6" cx="454.7" cy="100.9" r=".2"/>
  <line class="st9" x1="234" y1="69.4" x2="234" y2="77"/>
  <line x1="301.8" y1="69.3" x2="301.8" y2="77"/>
  <line class="st9" x1="261.6" y1="111.7" x2="267.7" y2="111.7"/>
  <line class="st9" x1="267.3" y1="95.2" x2="267.3" y2="111.7"/>
  <g>
    <line class="st9" x1="161.6" y1="76.7" x2="161.6" y2="194"/>
    <line class="st9" x1="161.2" y1="194" x2="328" y2="194.1"/>
    <line class="st9" x1="327.6" y1="194.6" x2="327.6" y2="149"/>
    <g>
      <line class="st9" x1="343.5" y1="149.3" x2="327.1" y2="149.3"/>
      <polygon points="342.6 146.3 347.8 149.3 342.6 152.3 342.6 146.3"/>
    </g>
  </g>
  <g>
    <line class="st9" x1="322.8" y1="129.2" x2="344.3" y2="129.2"/>
    <polygon points="343.4 132.2 348.6 129.2 343.4 126.2 343.4 132.2"/>
  </g>
  <line class="st1" x1="339.1" y1="152.4" x2="339.1" y2="125.4"/>
  <line class="st1" x1="159.3" y1="167.1" x2="163.8" y2="167.1"/>
  <g>
    <line class="st9" x1="339.1" y1="167.3" x2="339.1" y2="106.4"/>
    <polygon points="342.1 107.3 339.1 102.1 336.1 107.3 342.1 107.3"/>
  </g>
  <g>
    <polyline class="st9" points="151.2 167.1 168.6 167.1 168.6 181.2 185.9 181.2"/>
    <polygon points="185 184.2 190.2 181.2 185 178.2 185 184.2"/>
  </g>
  <line class="st1" x1="159.3" y1="117.2" x2="163.8" y2="117.2"/>
  <g>
    <polyline class="st9" points="178.9 95.1 168.7 95.1 168.7 117.2 151.2 117.2"/>
    <polygon points="178.1 92.1 183.2 95.1 178.1 98.1 178.1 92.1"/>
  </g>
  <rect class="st17" x="432.3" y="181.6" width="9.7" height="9.7"/>
</svg>